Pacifico.ufo
<glyph name="asterisk" format="1">
  <advance width="350"/>
  <unicode hex="002A"/>
  <outline>
    <contour>
      <point x="145" y="295" type="curve" smooth="yes"/>
      <point x="166" y="295"/>
      <point x="188" y="307"/>
      <point x="188" y="327" type="curve" smooth="yes"/>
      <point x="188" y="359"/>
      <point x="188" y="395"/>
      <point x="189" y="427" type="curve"/>
      <point x="211" y="403"/>
      <point x="238" y="380"/>
      <point x="262" y="357" type="curve" smooth="yes"/>
      <point x="266" y="353"/>
      <point x="272" y="351"/>
      <point x="277" y="351" type="curve" smooth="yes"/>
      <point x="296" y="351"/>
      <point x="318" y="376"/>
      <point x="318" y="395" type="curve" smooth="yes"/>
      <point x="318" y="402"/>
      <point x="315" y="409"/>
      <point x="307" y="413" type="curve" smooth="yes"/>
      <point x="279" y="427"/>
      <point x="248" y="440"/>
      <point x="219" y="453" type="curve"/>
      <point x="252" y="458"/>
      <point x="339" y="461"/>
      <point x="339" y="496" type="curve" smooth="yes"/>
      <point x="339" y="518"/>
      <point x="314" y="537"/>
      <point x="295" y="537" type="curve" smooth="yes"/>
      <point x="291" y="537"/>
      <point x="288" y="537"/>
      <point x="285" y="535" type="curve" smooth="yes"/>
      <point x="258" y="520"/>
      <point x="228" y="503"/>
      <point x="200" y="488" type="curve"/>
      <point x="212" y="518"/>
      <point x="225" y="553"/>
      <point x="235" y="584" type="curve" smooth="yes"/>
      <point x="236" y="587"/>
      <point x="237" y="591"/>
      <point x="237" y="594" type="curve" smooth="yes"/>
      <point x="237" y="610"/>
      <point x="223" y="624"/>
      <point x="206" y="624" type="curve" smooth="yes"/>
      <point x="185" y="624"/>
      <point x="164" y="613"/>
      <point x="164" y="592" type="curve" smooth="yes"/>
      <point x="164" y="559"/>
      <point x="162" y="523"/>
      <point x="162" y="491" type="curve"/>
      <point x="138" y="514"/>
      <point x="112" y="538"/>
      <point x="89" y="561" type="curve" smooth="yes"/>
      <point x="84" y="565"/>
      <point x="78" y="567"/>
      <point x="72" y="567" type="curve" smooth="yes"/>
      <point x="51" y="567"/>
      <point x="26" y="547"/>
      <point x="26" y="528" type="curve" smooth="yes"/>
      <point x="26" y="519"/>
      <point x="31" y="511"/>
      <point x="44" y="505" type="curve" smooth="yes"/>
      <point x="71" y="491"/>
      <point x="102" y="478"/>
      <point x="130" y="465" type="curve"/>
      <point x="98" y="459"/>
      <point x="11" y="458"/>
      <point x="11" y="422" type="curve" smooth="yes"/>
      <point x="11" y="401"/>
      <point x="34" y="380"/>
      <point x="53" y="380" type="curve" smooth="yes"/>
      <point x="57" y="380"/>
      <point x="61" y="381"/>
      <point x="65" y="383" type="curve" smooth="yes"/>
      <point x="93" y="397"/>
      <point x="123" y="413"/>
      <point x="150" y="429" type="curve"/>
      <point x="138" y="399"/>
      <point x="113" y="359"/>
      <point x="113" y="322" type="curve" smooth="yes"/>
      <point x="113" y="304"/>
      <point x="127" y="295"/>
    </contour>
  </outline>
</glyph>
<glyph name="comma" format="1">
  <advance width="290"/>
  <unicode hex="002C"/>
  <outline>
    <contour>
      <point x="87" y="-76" type="curve" smooth="yes"/>
      <point x="135" y="-63"/>
      <point x="206" y="-10"/>
      <point x="206" y="63" type="curve" smooth="yes"/>
      <point x="206" y="87"/>
      <point x="196" y="110"/>
      <point x="169" y="110" type="curve" smooth="yes"/>
      <point x="139" y="110"/>
      <point x="125" y="93"/>
      <point x="123" y="75" type="curve" smooth="yes"/>
      <point x="116" y="18"/>
      <point x="94" y="-7"/>
      <point x="66" y="-54" type="curve" smooth="yes"/>
      <point x="64" y="-57"/>
      <point x="63" y="-61"/>
      <point x="63" y="-64" type="curve" smooth="yes"/>
      <point x="63" y="-72"/>
      <point x="70" y="-77"/>
      <point x="79" y="-77" type="curve" smooth="yes"/>
      <point x="81" y="-77"/>
      <point x="84" y="-77"/>
    </contour>
  </outline>
</glyph>
<glyph name="hyphen" format="1">
  <advance width="367"/>
  <unicode hex="002D"/>
  <outline>
    <contour>
      <point x="57" y="289" type="curve" smooth="yes"/>
      <point x="57" y="271"/>
      <point x="69" y="255"/>
      <point x="85" y="255" type="curve" smooth="yes"/>
      <point x="88" y="255"/>
      <point x="92" y="255"/>
      <point x="96" y="257" type="curve" smooth="yes"/>
      <point x="137" y="277"/>
      <point x="167" y="295"/>
      <point x="296" y="313" type="curve" smooth="yes"/>
      <point x="318" y="316"/>
      <point x="325" y="324"/>
      <point x="325" y="339" type="curve" smooth="yes"/>
      <point x="325" y="360"/>
      <point x="309" y="365"/>
      <point x="293" y="365" type="curve" smooth="yes"/>
      <point x="178" y="358"/>
      <point x="118" y="343"/>
      <point x="87" y="327" type="curve" smooth="yes"/>
      <point x="64" y="314"/>
      <point x="57" y="301"/>
    </contour>
  </outline>
</glyph>
<glyph name="one" format="1">
  <advance width="333"/>
  <unicode hex="0031"/>
  <outline>
    <contour>
      <point x="211" y="11" type="curve" smooth="yes"/>
      <point x="245" y="170"/>
      <point x="291" y="417"/>
      <point x="297" y="448" type="curve" smooth="yes"/>
      <point x="298" y="455"/>
      <point x="299" y="461"/>
      <point x="299" y="467" type="curve" smooth="yes"/>
      <point x="299" y="482"/>
      <point x="295" y="492"/>
      <point x="283" y="492" type="curve" smooth="yes"/>
      <point x="278" y="492" type="line"/>
      <point x="243" y="485"/>
      <point x="157" y="467"/>
      <point x="129" y="458" type="curve" smooth="yes"/>
      <point x="118" y="455"/>
      <point x="113" y="439"/>
      <point x="113" y="423" type="curve" smooth="yes"/>
      <point x="113" y="405"/>
      <point x="120" y="388"/>
      <point x="131" y="388" type="curve" smooth="yes"/>
      <point x="134" y="388" type="line"/>
      <point x="147" y="391"/>
      <point x="196" y="405"/>
      <point x="212" y="411" type="curve"/>
      <point x="188" y="298"/>
      <point x="168" y="204"/>
      <point x="131" y="22" type="curve" smooth="yes"/>
      <point x="131" y="20"/>
      <point x="130" y="18"/>
      <point x="130" y="16" type="curve" smooth="yes"/>
      <point x="130" y="-3"/>
      <point x="150" y="-11"/>
      <point x="170" y="-11" type="curve" smooth="yes"/>
      <point x="189" y="-11"/>
      <point x="208" y="-3"/>
    </contour>
  </outline>
</glyph>
<glyph name="three" format="1">
  <advance width="417"/>
  <unicode hex="0033"/>
  <outline>
    <contour>
      <point x="374" y="387" type="curve" smooth="yes"/>
      <point x="374" y="457"/>
      <point x="315" y="490"/>
      <point x="243" y="490" type="curve" smooth="yes"/>
      <point x="187" y="490"/>
      <point x="134" y="466"/>
      <point x="102" y="427" type="curve" smooth="yes"/>
      <point x="99" y="423"/>
      <point x="98" y="419"/>
      <point x="98" y="414" type="curve" smooth="yes"/>
      <point x="98" y="398"/>
      <point x="112" y="380"/>
      <point x="129" y="380" type="curve" smooth="yes"/>
      <point x="137" y="380"/>
      <point x="145" y="384"/>
      <point x="154" y="394" type="curve" smooth="yes"/>
      <point x="173" y="415"/>
      <point x="202" y="426"/>
      <point x="228" y="426" type="curve" smooth="yes"/>
      <point x="261" y="426"/>
      <point x="290" y="408"/>
      <point x="290" y="371" type="curve" smooth="yes"/>
      <point x="290" y="318"/>
      <point x="239" y="291"/>
      <point x="179" y="291" type="curve" smooth="yes"/>
      <point x="150" y="291"/>
      <point x="138" y="281"/>
      <point x="138" y="263" type="curve" smooth="yes"/>
      <point x="138" y="244"/>
      <point x="148" y="233"/>
      <point x="165" y="233" type="curve" smooth="yes"/>
      <point x="239" y="233"/>
      <point x="303" y="204"/>
      <point x="303" y="144" type="curve" smooth="yes"/>
      <point x="303" y="75"/>
      <point x="264" y="49"/>
      <point x="220" y="49" type="curve" smooth="yes"/>
      <point x="179" y="49"/>
      <point x="135" y="71"/>
      <point x="115" y="100" type="curve" smooth="yes"/>
      <point x="107" y="112"/>
      <point x="96" y="117"/>
      <point x="85" y="117" type="curve" smooth="yes"/>
      <point x="65" y="117"/>
      <point x="45" y="100"/>
      <point x="45" y="80" type="curve" smooth="yes"/>
      <point x="45" y="74"/>
      <point x="47" y="67"/>
      <point x="51" y="61" type="curve" smooth="yes"/>
      <point x="82" y="12"/>
      <point x="141" y="-19"/>
      <point x="214" y="-19" type="curve" smooth="yes"/>
      <point x="298" y="-19"/>
      <point x="382" y="26"/>
      <point x="382" y="143" type="curve" smooth="yes"/>
      <point x="382" y="204"/>
      <point x="349" y="253"/>
      <point x="279" y="271" type="curve"/>
      <point x="344" y="284"/>
      <point x="374" y="340"/>
    </contour>
  </outline>
</glyph>
<glyph name="equal" format="1">
  <advance width="583"/>
  <unicode hex="003D"/>
  <outline>
    <contour>
      <point x="289" y="173" type="curve" smooth="yes"/>
      <point x="258" y="173"/>
      <point x="222" y="175"/>
      <point x="188" y="175" type="curve" smooth="yes"/>
      <point x="154" y="175"/>
      <point x="119" y="168"/>
      <point x="119" y="142" type="curve" smooth="yes"/>
      <point x="119" y="109"/>
      <point x="140" y="98"/>
      <point x="177" y="98" type="curve" smooth="yes"/>
      <point x="448" y="98" type="line" smooth="yes"/>
      <point x="516" y="98"/>
      <point x="554" y="109"/>
      <point x="554" y="154" type="curve" smooth="yes"/>
      <point x="554" y="170"/>
      <point x="542" y="175"/>
      <point x="526" y="175" type="curve" smooth="yes"/>
      <point x="413" y="175" type="line" smooth="yes"/>
      <point x="387" y="175"/>
      <point x="343" y="173"/>
    </contour>
    <contour>
      <point x="177" y="235" type="line"/>
      <point x="482" y="240" type="line" smooth="yes"/>
      <point x="528" y="240"/>
      <point x="566" y="251"/>
      <point x="566" y="285" type="curve" smooth="yes"/>
      <point x="566" y="312"/>
      <point x="556" y="318"/>
      <point x="544" y="321" type="curve" smooth="yes"/>
      <point x="530" y="324"/>
      <point x="515" y="325"/>
      <point x="500" y="325" type="curve" smooth="yes"/>
      <point x="456" y="325"/>
      <point x="404" y="316"/>
      <point x="327" y="316" type="curve" smooth="yes"/>
      <point x="303" y="316" type="line"/>
      <point x="214" y="318" type="line"/>
      <point x="206" y="318" type="line" smooth="yes"/>
      <point x="170" y="318"/>
      <point x="131" y="311"/>
      <point x="131" y="276" type="curve" smooth="yes"/>
      <point x="131" y="252"/>
      <point x="151" y="235"/>
      <point x="175" y="235" type="curve" smooth="yes"/>
    </contour>
  </outline>
</glyph>
<glyph name="A" format="1">
  <advance width="684"/>
  <unicode hex="0041"/>
  <outline>
    <contour>
      <point x="532" y="671" type="move" name="top"/>
    </contour>
    <contour>
      <point x="541" y="-46" type="move" name="ogonek"/>
    </contour>
    <contour>
      <point x="583" y="14" type="curve" smooth="yes"/>
      <point x="564" y="14"/>
      <point x="557" y="23"/>
      <point x="557" y="52" type="curve" smooth="yes"/>
      <point x="557" y="75"/>
      <point x="562" y="110"/>
      <point x="572" y="161" type="curve" smooth="yes"/>
      <point x="642" y="478" type="line" smooth="yes"/>
      <point x="643" y="480"/>
      <point x="643" y="483"/>
      <point x="643" y="485" type="curve" smooth="yes"/>
      <point x="643" y="507"/>
      <point x="618" y="522"/>
      <point x="595" y="522" type="curve" smooth="yes"/>
      <point x="578" y="522"/>
      <point x="566" y="515"/>
      <point x="563" y="499" type="curve" smooth="yes"/>
      <point x="499" y="217" type="line" smooth="yes"/>
      <point x="475" y="111"/>
      <point x="403" y="17"/>
      <point x="300" y="17" type="curve" smooth="yes"/>
      <point x="208" y="17"/>
      <point x="156" y="76"/>
      <point x="156" y="183" type="curve" smooth="yes"/>
      <point x="156" y="198" type="line" smooth="yes"/>
      <point x="166" y="454"/>
      <point x="337" y="616"/>
      <point x="521" y="616" type="curve" smooth="yes"/>
      <point x="588" y="616"/>
      <point x="654" y="595"/>
      <point x="716" y="550" type="curve" smooth="yes"/>
      <point x="724" y="543"/>
      <point x="733" y="541"/>
      <point x="740" y="541" type="curve" smooth="yes"/>
      <point x="758" y="541"/>
      <point x="772" y="556"/>
      <point x="772" y="575" type="curve" smooth="yes"/>
      <point x="772" y="583"/>
      <point x="770" y="595"/>
      <point x="759" y="604" type="curve" smooth="yes"/>
      <point x="692" y="668"/>
      <point x="608" y="697"/>
      <point x="520" y="697" type="curve" smooth="yes"/>
      <point x="295" y="697"/>
      <point x="59" y="501"/>
      <point x="59" y="194" type="curve" smooth="yes"/>
      <point x="59" y="29"/>
      <point x="139" y="-60"/>
      <point x="288" y="-60" type="curve" smooth="yes"/>
      <point x="376" y="-60"/>
      <point x="459" y="18"/>
      <point x="485" y="86" type="curve"/>
      <point x="485" y="86"/>
      <point x="482" y="65"/>
      <point x="482" y="43" type="curve" smooth="yes"/>
      <point x="482" y="-15"/>
      <point x="506" y="-57"/>
      <point x="565" y="-57" type="curve" smooth="yes"/>
      <point x="612" y="-57"/>
      <point x="666" y="-30"/>
      <point x="692" y="1" type="curve" smooth="yes"/>
      <point x="697" y="7"/>
      <point x="699" y="14"/>
      <point x="699" y="20" type="curve" smooth="yes"/>
      <point x="699" y="39"/>
      <point x="682" y="55"/>
      <point x="667" y="55" type="curve" smooth="yes"/>
      <point x="664" y="55"/>
      <point x="660" y="55"/>
      <point x="656" y="51" type="curve" smooth="yes"/>
      <point x="638" y="35"/>
      <point x="606" y="14"/>
    </contour>
  </outline>
</glyph>
<glyph name="B" format="1">
  <advance width="616"/>
  <unicode hex="0042"/>
  <outline>
    <contour>
      <point x="392" y="671" type="move" name="top"/>
    </contour>
    <contour>
      <point x="362" y="609" type="curve" smooth="yes"/>
      <point x="458" y="609"/>
      <point x="537" y="568"/>
      <point x="537" y="477" type="curve" smooth="yes"/>
      <point x="537" y="425"/>
      <point x="498" y="338"/>
      <point x="350" y="338" type="curve" smooth="yes"/>
      <point x="345" y="338" type="line" smooth="yes"/>
      <point x="313" y="339" type="line" smooth="yes"/>
      <point x="289" y="339"/>
      <point x="270" y="333"/>
      <point x="270" y="313" type="curve" smooth="yes"/>
      <point x="270" y="260"/>
      <point x="476" y="302"/>
      <point x="476" y="170" type="curve" smooth="yes"/>
      <point x="476" y="83"/>
      <point x="349" y="-10"/>
      <point x="199" y="-10" type="curve" smooth="yes"/>
      <point x="163" y="-10"/>
      <point x="164" y="0"/>
      <point x="164" y="22" type="curve" smooth="yes"/>
      <point x="164" y="166"/>
      <point x="195" y="403"/>
      <point x="260" y="489" type="curve"/>
      <point x="249" y="506"/>
      <point x="237" y="514"/>
      <point x="219" y="514" type="curve" smooth="yes"/>
      <point x="125" y="514"/>
      <point x="70" y="264"/>
      <point x="70" y="-19" type="curve" smooth="yes"/>
      <point x="70" y="-56"/>
      <point x="123" y="-79"/>
      <point x="206" y="-79" type="curve" smooth="yes"/>
      <point x="386" y="-79"/>
      <point x="581" y="45"/>
      <point x="581" y="175" type="curve" smooth="yes"/>
      <point x="581" y="247"/>
      <point x="509" y="296"/>
      <point x="437" y="308" type="curve"/>
      <point x="575" y="320"/>
      <point x="632" y="404"/>
      <point x="640" y="468" type="curve" smooth="yes"/>
      <point x="642" y="479"/>
      <point x="642" y="489"/>
      <point x="642" y="499" type="curve" smooth="yes"/>
      <point x="642" y="626"/>
      <point x="519" y="691"/>
      <point x="372" y="691" type="curve" smooth="yes"/>
      <point x="253" y="691"/>
      <point x="120" y="649"/>
      <point x="28" y="565" type="curve" smooth="yes"/>
      <point x="21" y="559"/>
      <point x="18" y="551"/>
      <point x="18" y="543" type="curve" smooth="yes"/>
      <point x="18" y="523"/>
      <point x="36" y="501"/>
      <point x="60" y="501" type="curve" smooth="yes"/>
      <point x="71" y="501"/>
      <point x="83" y="505"/>
      <point x="96" y="516" type="curve" smooth="yes"/>
      <point x="164" y="574"/>
      <point x="271" y="609"/>
    </contour>
  </outline>
</glyph>
<glyph name="F" format="1">
  <advance width="518"/>
  <unicode hex="0046"/>
  <outline>
    <contour>
      <point x="462" y="671" type="move" name="top"/>
    </contour>
    <contour>
      <point x="6" y="-9" type="curve" smooth="yes"/>
      <point x="25" y="-44"/>
      <point x="88" y="-68"/>
      <point x="138" y="-68" type="curve" smooth="yes"/>
      <point x="294" y="-68"/>
      <point x="330" y="69"/>
      <point x="384" y="256" type="curve"/>
      <point x="424" y="256"/>
      <point x="469" y="263"/>
      <point x="508" y="263" type="curve" smooth="yes"/>
      <point x="522" y="263"/>
      <point x="529" y="279"/>
      <point x="529" y="295" type="curve" smooth="yes"/>
      <point x="529" y="314"/>
      <point x="527" y="328"/>
      <point x="508" y="328" type="curve" smooth="yes"/>
      <point x="398" y="328" type="line"/>
      <point x="432" y="458"/>
      <point x="446" y="544"/>
      <point x="458" y="613" type="curve"/>
      <point x="484" y="616"/>
      <point x="508" y="617"/>
      <point x="532" y="617" type="curve" smooth="yes"/>
      <point x="598" y="617"/>
      <point x="662" y="608"/>
      <point x="742" y="601" type="curve" smooth="yes"/>
      <point x="745" y="601" type="line" smooth="yes"/>
      <point x="765" y="601"/>
      <point x="774" y="622"/>
      <point x="774" y="642" type="curve" smooth="yes"/>
      <point x="774" y="685"/>
      <point x="650" y="691"/>
      <point x="562" y="691" type="curve" smooth="yes"/>
      <point x="532" y="691"/>
      <point x="505" y="690"/>
      <point x="490" y="690" type="curve" smooth="yes"/>
      <point x="175" y="690"/>
      <point x="30" y="535"/>
      <point x="30" y="394" type="curve" smooth="yes"/>
      <point x="30" y="353"/>
      <point x="42" y="313"/>
      <point x="66" y="279" type="curve" smooth="yes"/>
      <point x="77" y="263"/>
      <point x="106" y="255"/>
      <point x="129" y="255" type="curve" smooth="yes"/>
      <point x="148" y="255"/>
      <point x="162" y="260"/>
      <point x="162" y="269" type="curve" smooth="yes"/>
      <point x="162" y="271"/>
      <point x="161" y="274"/>
      <point x="159" y="277" type="curve" smooth="yes"/>
      <point x="132" y="313"/>
      <point x="119" y="352"/>
      <point x="119" y="390" type="curve" smooth="yes"/>
      <point x="119" y="491"/>
      <point x="211" y="586"/>
      <point x="385" y="606" type="curve"/>
      <point x="373" y="562"/>
      <point x="334" y="407"/>
      <point x="312" y="322" type="curve"/>
      <point x="288" y="319"/>
      <point x="238" y="314"/>
      <point x="238" y="284" type="curve" smooth="yes"/>
      <point x="238" y="263"/>
      <point x="260" y="256"/>
      <point x="281" y="256" type="curve" smooth="yes"/>
      <point x="296" y="256" type="line"/>
      <point x="254" y="78"/>
      <point x="211" y="33"/>
      <point x="152" y="25" type="curve" smooth="yes"/>
      <point x="147" y="24"/>
      <point x="141" y="24"/>
      <point x="136" y="24" type="curve" smooth="yes"/>
      <point x="102" y="24"/>
      <point x="78" y="40"/>
      <point x="54" y="52" type="curve" smooth="yes"/>
      <point x="52" y="53"/>
      <point x="49" y="54"/>
      <point x="46" y="54" type="curve" smooth="yes"/>
      <point x="26" y="54"/>
      <point x="4" y="24"/>
      <point x="4" y="2" type="curve" smooth="yes"/>
      <point x="4" y="-2"/>
      <point x="4" y="-6"/>
    </contour>
  </outline>
</glyph>
<glyph name="J" format="1">
  <advance width="507"/>
  <unicode hex="004A"/>
  <outline>
    <contour>
      <point x="532" y="671" type="move" name="top"/>
    </contour>
    <contour>
      <point x="208" y="-194" type="line" smooth="yes"/>
      <point x="359" y="-195"/>
      <point x="483" y="257"/>
      <point x="565" y="578" type="curve"/>
      <point x="615" y="578"/>
      <point x="657" y="581"/>
      <point x="685" y="586" type="curve" smooth="yes"/>
      <point x="713" y="591"/>
      <point x="726" y="603"/>
      <point x="726" y="624" type="curve" smooth="yes"/>
      <point x="726" y="645"/>
      <point x="717" y="661"/>
      <point x="684" y="661" type="curve" smooth="yes"/>
      <point x="648" y="661"/>
      <point x="612" y="662"/>
      <point x="578" y="664" type="curve"/>
      <point x="573" y="673"/>
      <point x="562" y="679"/>
      <point x="544" y="679" type="curve" smooth="yes"/>
      <point x="530" y="679"/>
      <point x="519" y="676"/>
      <point x="512" y="667" type="curve"/>
      <point x="433" y="672"/>
      <point x="358" y="679"/>
      <point x="282" y="679" type="curve" smooth="yes"/>
      <point x="121" y="679"/>
      <point x="-2" y="641"/>
      <point x="-40" y="478" type="curve" smooth="yes"/>
      <point x="-41" y="474"/>
      <point x="-41" y="470"/>
      <point x="-41" y="467" type="curve" smooth="yes"/>
      <point x="-41" y="448"/>
      <point x="-28" y="440"/>
      <point x="-14" y="440" type="curve" smooth="yes"/>
      <point x="-3" y="440"/>
      <point x="9" y="446"/>
      <point x="14" y="457" type="curve" smooth="yes"/>
      <point x="51" y="545"/>
      <point x="91" y="586"/>
      <point x="271" y="586" type="curve" smooth="yes"/>
      <point x="338" y="586"/>
      <point x="418" y="581"/>
      <point x="489" y="579" type="curve"/>
      <point x="444" y="383"/>
      <point x="303" y="-109"/>
      <point x="195" y="-109" type="curve" smooth="yes"/>
      <point x="141" y="-109"/>
      <point x="131" y="-61"/>
      <point x="125" y="21" type="curve" smooth="yes"/>
      <point x="123" y="44"/>
      <point x="108" y="57"/>
      <point x="93" y="57" type="curve" smooth="yes"/>
      <point x="78" y="57"/>
      <point x="63" y="43"/>
      <point x="63" y="13" type="curve" smooth="yes"/>
      <point x="63" y="-118"/>
      <point x="106" y="-194"/>
      <point x="206" y="-194" type="curve" smooth="yes"/>
    </contour>
  </outline>
</glyph>
<glyph name="M" format="1">
  <advance width="863"/>
  <unicode hex="004D"/>
  <outline>
    <contour>
      <point x="602" y="671" type="move" name="top"/>
    </contour>
    <contour>
      <point x="157" y="572" type="curve" smooth="yes"/>
      <point x="181" y="572"/>
      <point x="190" y="550"/>
      <point x="190" y="510" type="curve" smooth="yes"/>
      <point x="190" y="462"/>
      <point x="175" y="389"/>
      <point x="147" y="298" type="curve" smooth="yes"/>
      <point x="46" y="-27" type="line"/>
      <point x="46" y="-27"/>
      <point x="74" y="-52"/>
      <point x="105" y="-52" type="curve" smooth="yes"/>
      <point x="145" y="-52"/>
      <point x="149" y="-9"/>
      <point x="155" y="12" type="curve" smooth="yes"/>
      <point x="266" y="375"/>
      <point x="346" y="552"/>
      <point x="443" y="552" type="curve" smooth="yes"/>
      <point x="479" y="552"/>
      <point x="492" y="520"/>
      <point x="492" y="476" type="curve" smooth="yes"/>
      <point x="492" y="437"/>
      <point x="482" y="388"/>
      <point x="469" y="344" type="curve" smooth="yes"/>
      <point x="361" y="-17" type="line"/>
      <point x="361" y="-17"/>
      <point x="386" y="-42"/>
      <point x="414" y="-42" type="curve" smooth="yes"/>
      <point x="449" y="-42"/>
      <point x="456" y="1"/>
      <point x="462" y="22" type="curve" smooth="yes"/>
      <point x="540" y="291"/>
      <point x="631" y="556"/>
      <point x="728" y="556" type="curve" smooth="yes"/>
      <point x="757" y="556"/>
      <point x="775" y="536"/>
      <point x="775" y="515" type="curve" smooth="yes"/>
      <point x="775" y="380"/>
      <point x="674" y="198"/>
      <point x="665" y="47" type="curve" smooth="yes"/>
      <point x="665" y="38" type="line" smooth="yes"/>
      <point x="665" y="-24"/>
      <point x="705" y="-69"/>
      <point x="792" y="-69" type="curve" smooth="yes"/>
      <point x="845" y="-69"/>
      <point x="893" y="-39"/>
      <point x="923" y="-4" type="curve" smooth="yes"/>
      <point x="937" y="11"/>
      <point x="942" y="25"/>
      <point x="942" y="36" type="curve" smooth="yes"/>
      <point x="942" y="52"/>
      <point x="931" y="61"/>
      <point x="917" y="61" type="curve" smooth="yes"/>
      <point x="907" y="61"/>
      <point x="896" y="56"/>
      <point x="887" y="45" type="curve" smooth="yes"/>
      <point x="863" y="16"/>
      <point x="826" y="0"/>
      <point x="795" y="-0" type="curve" smooth="yes"/>
      <point x="765" y="0"/>
      <point x="743" y="18"/>
      <point x="743" y="51" type="curve" smooth="yes"/>
      <point x="743" y="55"/>
      <point x="743" y="60"/>
      <point x="744" y="64" type="curve" smooth="yes"/>
      <point x="764" y="208"/>
      <point x="849" y="370"/>
      <point x="859" y="519" type="curve" smooth="yes"/>
      <point x="859" y="523"/>
      <point x="860" y="528"/>
      <point x="860" y="533" type="curve" smooth="yes"/>
      <point x="860" y="580"/>
      <point x="841" y="641"/>
      <point x="761" y="641" type="curve" smooth="yes"/>
      <point x="757" y="641"/>
      <point x="752" y="640"/>
      <point x="747" y="640" type="curve" smooth="yes"/>
      <point x="680" y="635"/>
      <point x="591" y="552"/>
      <point x="543" y="401" type="curve"/>
      <point x="554" y="446"/>
      <point x="560" y="486"/>
      <point x="560" y="519" type="curve" smooth="yes"/>
      <point x="560" y="598"/>
      <point x="529" y="642"/>
      <point x="470" y="642" type="curve" smooth="yes"/>
      <point x="371" y="642"/>
      <point x="312" y="579"/>
      <point x="232" y="380" type="curve"/>
      <point x="250" y="443"/>
      <point x="263" y="498"/>
      <point x="263" y="542" type="curve" smooth="yes"/>
      <point x="263" y="602"/>
      <point x="236" y="644"/>
      <point x="164" y="644" type="curve" smooth="yes"/>
      <point x="96" y="644"/>
      <point x="-3" y="577"/>
      <point x="-3" y="485" type="curve" smooth="yes"/>
      <point x="-3" y="456"/>
      <point x="34" y="435"/>
      <point x="50" y="435" type="curve" smooth="yes"/>
      <point x="54" y="435"/>
      <point x="56" y="436"/>
      <point x="57" y="438" type="curve" smooth="yes"/>
      <point x="74" y="504"/>
      <point x="113" y="572"/>
    </contour>
  </outline>
</glyph>
<glyph name="N" format="1">
  <advance width="606"/>
  <unicode hex="004E"/>
  <outline>
    <contour>
      <point x="462" y="671" type="move" name="top"/>
    </contour>
    <contour>
      <point x="621" y="543" type="curve" smooth="yes"/>
      <point x="621" y="604"/>
      <point x="579" y="643"/>
      <point x="507" y="643" type="curve" smooth="yes"/>
      <point x="351" y="643"/>
      <point x="272" y="474"/>
      <point x="219" y="332" type="curve"/>
      <point x="241" y="418"/>
      <point x="258" y="507"/>
      <point x="258" y="553" type="curve" smooth="yes"/>
      <point x="257" y="609"/>
      <point x="218" y="642"/>
      <point x="170" y="642" type="curve" smooth="yes"/>
      <point x="101" y="642"/>
      <point x="33" y="588"/>
      <point x="-4" y="505" type="curve" smooth="yes"/>
      <point x="-7" y="498"/>
      <point x="-8" y="492"/>
      <point x="-8" y="486" type="curve" smooth="yes"/>
      <point x="-8" y="455"/>
      <point x="31" y="436"/>
      <point x="46" y="436" type="curve" smooth="yes"/>
      <point x="49" y="436"/>
      <point x="50" y="437"/>
      <point x="51" y="438" type="curve" smooth="yes"/>
      <point x="84" y="527"/>
      <point x="120" y="571"/>
      <point x="155" y="571" type="curve" smooth="yes"/>
      <point x="156" y="571" type="line" smooth="yes"/>
      <point x="180" y="571"/>
      <point x="181" y="521"/>
      <point x="181" y="510" type="curve" smooth="yes"/>
      <point x="181" y="390"/>
      <point x="81" y="122"/>
      <point x="25" y="-17" type="curve"/>
      <point x="25" y="-17"/>
      <point x="49" y="-42"/>
      <point x="81" y="-42" type="curve" smooth="yes"/>
      <point x="121" y="-42"/>
      <point x="127" y="-9"/>
      <point x="140" y="22" type="curve" smooth="yes"/>
      <point x="247" y="287"/>
      <point x="357" y="555"/>
      <point x="492" y="555" type="curve" smooth="yes"/>
      <point x="520" y="555"/>
      <point x="531" y="535"/>
      <point x="531" y="511" type="curve" smooth="yes"/>
      <point x="531" y="439"/>
      <point x="439" y="257"/>
      <point x="411" y="85" type="curve" smooth="yes"/>
      <point x="410" y="79"/>
      <point x="410" y="72"/>
      <point x="410" y="66" type="curve" smooth="yes"/>
      <point x="410" y="9"/>
      <point x="452" y="-31"/>
      <point x="535" y="-31" type="curve" smooth="yes"/>
      <point x="577" y="-31"/>
      <point x="634" y="-4"/>
      <point x="668" y="29" type="curve" smooth="yes"/>
      <point x="684" y="45"/>
      <point x="690" y="59"/>
      <point x="690" y="71" type="curve" smooth="yes"/>
      <point x="690" y="87"/>
      <point x="678" y="98"/>
      <point x="663" y="98" type="curve" smooth="yes"/>
      <point x="653" y="98"/>
      <point x="643" y="94"/>
      <point x="633" y="83" type="curve" smooth="yes"/>
      <point x="607" y="54"/>
      <point x="570" y="38"/>
      <point x="540" y="38" type="curve" smooth="yes"/>
      <point x="511" y="38"/>
      <point x="489" y="53"/>
      <point x="489" y="84" type="curve" smooth="yes"/>
      <point x="489" y="90"/>
      <point x="489" y="95"/>
      <point x="491" y="102" type="curve" smooth="yes"/>
      <point x="529" y="268"/>
      <point x="621" y="441"/>
    </contour>
  </outline>
</glyph>
<glyph name="O" format="1">
  <advance width="661"/>
  <unicode hex="004F"/>
  <outline>
    <contour>
      <point x="344" y="-91" type="move" name="ogonek"/>
    </contour>
    <contour>
      <point x="452" y="671" type="move" name="top"/>
    </contour>
    <contour>
      <point x="334" y="-24" type="curve" smooth="yes"/>
      <point x="214" y="-24"/>
      <point x="160" y="90"/>
      <point x="160" y="217" type="curve" smooth="yes"/>
      <point x="160" y="381"/>
      <point x="256" y="591"/>
      <point x="428" y="591" type="curve" smooth="yes"/>
      <point x="535" y="591"/>
      <point x="587" y="489"/>
      <point x="587" y="350" type="curve" smooth="yes"/>
      <point x="587" y="178"/>
      <point x="501" y="-24"/>
    </contour>
    <contour>
      <point x="70" y="206" type="curve" smooth="yes"/>
      <point x="70" y="44"/>
      <point x="154" y="-104"/>
      <point x="327" y="-104" type="curve" smooth="yes"/>
      <point x="556" y="-104"/>
      <point x="677" y="128"/>
      <point x="677" y="339" type="curve" smooth="yes"/>
      <point x="677" y="523"/>
      <point x="596" y="669"/>
      <point x="423" y="669" type="curve" smooth="yes"/>
      <point x="195" y="669"/>
      <point x="70" y="437"/>
    </contour>
  </outline>
</glyph>
<glyph name="Q" format="1">
  <advance width="701"/>
  <unicode hex="0051"/>
  <outline>
    <contour>
      <point x="1042" y="-208" type="curve" smooth="yes"/>
      <point x="1042" y="-189"/>
      <point x="1023" y="-179"/>
      <point x="1007" y="-179" type="curve" smooth="yes"/>
      <point x="997" y="-179"/>
      <point x="987" y="-185"/>
      <point x="985" y="-193" type="curve" smooth="yes"/>
      <point x="961" y="-221"/>
      <point x="940" y="-251"/>
      <point x="891" y="-251" type="curve" smooth="yes"/>
      <point x="822" y="-251"/>
      <point x="704" y="-194"/>
      <point x="505" y="-47" type="curve"/>
      <point x="618" y="35"/>
      <point x="677" y="192"/>
      <point x="677" y="339" type="curve" smooth="yes"/>
      <point x="677" y="523"/>
      <point x="596" y="669"/>
      <point x="423" y="669" type="curve" smooth="yes"/>
      <point x="195" y="669"/>
      <point x="70" y="437"/>
      <point x="70" y="206" type="curve" smooth="yes"/>
      <point x="70" y="44"/>
      <point x="154" y="-104"/>
      <point x="327" y="-104" type="curve" smooth="yes"/>
      <point x="370" y="-104"/>
      <point x="408" y="-96"/>
      <point x="443" y="-82" type="curve"/>
      <point x="641" y="-231"/>
      <point x="775" y="-337"/>
      <point x="880" y="-337" type="curve" smooth="yes"/>
      <point x="911" y="-337"/>
      <point x="939" y="-328"/>
      <point x="966" y="-308" type="curve" smooth="yes"/>
      <point x="1025" y="-263"/>
      <point x="1031" y="-230"/>
      <point x="1041" y="-214" type="curve" smooth="yes"/>
      <point x="1042" y="-212"/>
      <point x="1042" y="-210"/>
    </contour>
    <contour>
      <point x="334" y="-24" type="curve" smooth="yes"/>
      <point x="214" y="-24"/>
      <point x="160" y="90"/>
      <point x="160" y="217" type="curve" smooth="yes"/>
      <point x="160" y="381"/>
      <point x="256" y="591"/>
      <point x="428" y="591" type="curve" smooth="yes"/>
      <point x="535" y="591"/>
      <point x="587" y="489"/>
      <point x="587" y="350" type="curve" smooth="yes"/>
      <point x="587" y="217"/>
      <point x="536" y="67"/>
      <point x="436" y="5" type="curve" smooth="yes"/>
      <point x="435" y="6"/>
      <point x="433" y="6"/>
      <point x="432" y="6" type="curve" smooth="yes"/>
      <point x="423" y="6"/>
      <point x="411" y="-2"/>
      <point x="402" y="-12" type="curve"/>
      <point x="381" y="-20"/>
      <point x="358" y="-24"/>
    </contour>
  </outline>
</glyph>
<glyph name="U" format="1">
  <advance width="632"/>
  <unicode hex="0055"/>
  <outline>
    <contour>
      <point x="452" y="671" type="move" name="top"/>
    </contour>
    <contour>
      <point x="292" y="-53" type="move" name="ogonek"/>
    </contour>
    <contour>
      <point x="672" y="411" type="curve"/>
      <point x="709" y="425"/>
      <point x="749" y="447"/>
      <point x="792" y="482" type="curve" smooth="yes"/>
      <point x="800" y="488"/>
      <point x="803" y="496"/>
      <point x="803" y="504" type="curve" smooth="yes"/>
      <point x="803" y="518"/>
      <point x="792" y="530"/>
      <point x="779" y="530" type="curve" smooth="yes"/>
      <point x="774" y="530"/>
      <point x="769" y="528"/>
      <point x="763" y="524" type="curve" smooth="yes"/>
      <point x="732" y="501"/>
      <point x="703" y="485"/>
      <point x="677" y="474" type="curve"/>
      <point x="677" y="487" type="line" smooth="yes"/>
      <point x="677" y="604"/>
      <point x="637" y="692"/>
      <point x="549" y="692" type="curve" smooth="yes"/>
      <point x="459" y="692"/>
      <point x="417" y="632"/>
      <point x="417" y="567" type="curve" smooth="yes"/>
      <point x="417" y="486"/>
      <point x="481" y="395"/>
      <point x="589" y="395" type="curve"/>
      <point x="556" y="222"/>
      <point x="448" y="15"/>
      <point x="287" y="15" type="curve" smooth="yes"/>
      <point x="202" y="15"/>
      <point x="169" y="86"/>
      <point x="169" y="181" type="curve" smooth="yes"/>
      <point x="169" y="297"/>
      <point x="218" y="450"/>
      <point x="281" y="553" type="curve" smooth="yes"/>
      <point x="285" y="560"/>
      <point x="287" y="566"/>
      <point x="287" y="572" type="curve" smooth="yes"/>
      <point x="287" y="587"/>
      <point x="273" y="595"/>
      <point x="256" y="595" type="curve" smooth="yes"/>
      <point x="250" y="595"/>
      <point x="243" y="594"/>
      <point x="237" y="592" type="curve" smooth="yes"/>
      <point x="234" y="592"/>
      <point x="230" y="590"/>
      <point x="226" y="588" type="curve" smooth="yes"/>
      <point x="58" y="480" type="line" smooth="yes"/>
      <point x="47" y="473"/>
      <point x="43" y="462"/>
      <point x="43" y="451" type="curve" smooth="yes"/>
      <point x="43" y="437"/>
      <point x="51" y="425"/>
      <point x="64" y="425" type="curve" smooth="yes"/>
      <point x="69" y="425"/>
      <point x="74" y="427"/>
      <point x="80" y="431" type="curve" smooth="yes"/>
      <point x="159" y="483" type="line"/>
      <point x="114" y="386"/>
      <point x="83" y="272"/>
      <point x="83" y="174" type="curve" smooth="yes"/>
      <point x="83" y="41"/>
      <point x="138" y="-63"/>
      <point x="285" y="-63" type="curve" smooth="yes"/>
      <point x="502" y="-63"/>
      <point x="644" y="196"/>
    </contour>
    <contour>
      <point x="482" y="566" type="curve" smooth="yes"/>
      <point x="482" y="598"/>
      <point x="498" y="624"/>
      <point x="533" y="624" type="curve" smooth="yes"/>
      <point x="578" y="624"/>
      <point x="599" y="570"/>
      <point x="599" y="495" type="curve" smooth="yes"/>
      <point x="599" y="483"/>
      <point x="598" y="470"/>
      <point x="597" y="456" type="curve"/>
      <point x="520" y="457"/>
      <point x="482" y="518"/>
    </contour>
  </outline>
</glyph>
<glyph name="W" format="1">
  <advance width="965"/>
  <unicode hex="0057"/>
  <outline>
    <contour>
      <point x="642" y="671" type="move" name="top"/>
    </contour>
    <contour>
      <point x="918" y="466" type="curve"/>
      <point x="871" y="481"/>
      <point x="849" y="526"/>
      <point x="849" y="565" type="curve" smooth="yes"/>
      <point x="849" y="602"/>
      <point x="868" y="634"/>
      <point x="901" y="634" type="curve" smooth="yes"/>
      <point x="918" y="634"/>
      <point x="934" y="613"/>
      <point x="934" y="566" type="curve" smooth="yes"/>
      <point x="934" y="540"/>
      <point x="930" y="507"/>
    </contour>
    <contour>
      <point x="163" y="428" type="line"/>
      <point x="134" y="360"/>
      <point x="105" y="264"/>
      <point x="105" y="159" type="curve" smooth="yes"/>
      <point x="105" y="29"/>
      <point x="148" y="-44"/>
      <point x="239" y="-44" type="curve" smooth="yes"/>
      <point x="241" y="-44" type="line" smooth="yes"/>
      <point x="335" y="-40"/>
      <point x="422" y="54"/>
      <point x="493" y="177" type="curve"/>
      <point x="495" y="61"/>
      <point x="528" y="-44"/>
      <point x="613" y="-44" type="curve" smooth="yes"/>
      <point x="614" y="-44" type="line"/>
      <point x="734" y="-39"/>
      <point x="832" y="104"/>
      <point x="917" y="256" type="curve" smooth="yes"/>
      <point x="946" y="309"/>
      <point x="967" y="358"/>
      <point x="982" y="403" type="curve"/>
      <point x="1031" y="410"/>
      <point x="1087" y="433"/>
      <point x="1151" y="477" type="curve" smooth="yes"/>
      <point x="1161" y="485"/>
      <point x="1166" y="494"/>
      <point x="1166" y="504" type="curve" smooth="yes"/>
      <point x="1166" y="519"/>
      <point x="1154" y="534"/>
      <point x="1138" y="534" type="curve" smooth="yes"/>
      <point x="1131" y="534"/>
      <point x="1124" y="532"/>
      <point x="1116" y="526" type="curve" smooth="yes"/>
      <point x="1071" y="495"/>
      <point x="1033" y="476"/>
      <point x="1000" y="467" type="curve"/>
      <point x="1007" y="500"/>
      <point x="1011" y="530"/>
      <point x="1011" y="556" type="curve" smooth="yes"/>
      <point x="1011" y="647"/>
      <point x="971" y="699"/>
      <point x="911" y="700" type="curve" smooth="yes"/>
      <point x="815" y="700"/>
      <point x="770" y="637"/>
      <point x="770" y="569" type="curve" smooth="yes"/>
      <point x="770" y="500"/>
      <point x="815" y="427"/>
      <point x="898" y="406" type="curve"/>
      <point x="885" y="372"/>
      <point x="869" y="334"/>
      <point x="848" y="292" type="curve" smooth="yes"/>
      <point x="798" y="197"/>
      <point x="705" y="48"/>
      <point x="626" y="37" type="curve" smooth="yes"/>
      <point x="621" y="37" type="line" smooth="yes"/>
      <point x="573" y="37"/>
      <point x="568" y="143"/>
      <point x="568" y="189" type="curve" smooth="yes"/>
      <point x="568" y="212"/>
      <point x="569" y="232"/>
      <point x="571" y="250" type="curve" smooth="yes"/>
      <point x="583" y="343"/>
      <point x="622" y="386"/>
      <point x="633" y="442" type="curve" smooth="yes"/>
      <point x="635" y="449"/>
      <point x="635" y="456"/>
      <point x="635" y="462" type="curve" smooth="yes"/>
      <point x="635" y="489"/>
      <point x="620" y="504"/>
      <point x="601" y="504" type="curve" smooth="yes"/>
      <point x="599" y="504" type="line" smooth="yes"/>
      <point x="583" y="504"/>
      <point x="565" y="494"/>
      <point x="553" y="472" type="curve" smooth="yes"/>
      <point x="538" y="446"/>
      <point x="524" y="410"/>
      <point x="514" y="368" type="curve"/>
      <point x="504" y="344"/>
      <point x="494" y="321"/>
      <point x="483" y="299" type="curve" smooth="yes"/>
      <point x="413" y="150"/>
      <point x="321" y="45"/>
      <point x="253" y="37" type="curve" smooth="yes"/>
      <point x="247" y="37" type="line" smooth="yes"/>
      <point x="216" y="37"/>
      <point x="193" y="67"/>
      <point x="193" y="152" type="curve" smooth="yes"/>
      <point x="193" y="345"/>
      <point x="296" y="507"/>
      <point x="305" y="518" type="curve" smooth="yes"/>
      <point x="307" y="521"/>
      <point x="308" y="524"/>
      <point x="308" y="527" type="curve" smooth="yes"/>
      <point x="308" y="542"/>
      <point x="290" y="561"/>
      <point x="267" y="561" type="curve" smooth="yes"/>
      <point x="257" y="561"/>
      <point x="246" y="558"/>
      <point x="234" y="548" type="curve" smooth="yes"/>
      <point x="233" y="548"/>
      <point x="233" y="547"/>
      <point x="232" y="547" type="curve" smooth="yes"/>
      <point x="5" y="410" type="line" smooth="yes"/>
      <point x="-8" y="403"/>
      <point x="-14" y="389"/>
      <point x="-14" y="376" type="curve" smooth="yes"/>
      <point x="-14" y="358"/>
      <point x="-3" y="341"/>
      <point x="14" y="341" type="curve" smooth="yes"/>
      <point x="20" y="341"/>
      <point x="27" y="343"/>
      <point x="34" y="348" type="curve" smooth="yes"/>
    </contour>
  </outline>
</glyph>
<glyph name="Y" format="1">
  <advance width="564"/>
  <unicode hex="0059"/>
  <outline>
    <contour>
      <point x="452" y="671" type="move" name="top"/>
    </contour>
    <contour>
      <point x="369" y="-41" type="curve"/>
      <point x="319" y="-188"/>
      <point x="268" y="-269"/>
      <point x="248" y="-269" type="curve" smooth="yes"/>
      <point x="237" y="-269"/>
      <point x="229" y="-262"/>
      <point x="229" y="-241" type="curve" smooth="yes"/>
      <point x="229" y="-203"/>
      <point x="287" y="-126"/>
    </contour>
    <contour>
      <point x="499" y="151" type="curve"/>
      <point x="593" y="528" type="line" smooth="yes"/>
      <point x="596" y="541"/>
      <point x="598" y="553"/>
      <point x="598" y="562" type="curve" smooth="yes"/>
      <point x="598" y="583"/>
      <point x="588" y="595"/>
      <point x="556" y="595" type="curve" smooth="yes"/>
      <point x="538" y="595"/>
      <point x="523" y="580"/>
      <point x="516" y="549" type="curve" smooth="yes"/>
      <point x="433" y="209" type="line"/>
      <point x="376" y="136"/>
      <point x="301" y="87"/>
      <point x="243" y="87" type="curve" smooth="yes"/>
      <point x="192" y="87"/>
      <point x="154" y="125"/>
      <point x="154" y="218" type="curve" smooth="yes"/>
      <point x="154" y="296"/>
      <point x="181" y="414"/>
      <point x="248" y="580" type="curve" smooth="yes"/>
      <point x="249" y="583"/>
      <point x="250" y="586"/>
      <point x="250" y="589" type="curve" smooth="yes"/>
      <point x="250" y="603"/>
      <point x="232" y="606"/>
      <point x="218" y="606" type="curve" smooth="yes"/>
      <point x="191" y="606"/>
      <point x="181" y="589"/>
      <point x="173" y="576" type="curve" smooth="yes"/>
      <point x="101" y="444"/>
      <point x="70" y="326"/>
      <point x="70" y="233" type="curve" smooth="yes"/>
      <point x="70" y="102"/>
      <point x="130" y="21"/>
      <point x="220" y="21" type="curve" smooth="yes"/>
      <point x="276" y="21"/>
      <point x="345" y="52"/>
      <point x="417" y="124" type="curve"/>
      <point x="412" y="104"/>
      <point x="407" y="85"/>
      <point x="402" y="67" type="curve"/>
      <point x="277" y="-49"/>
      <point x="160" y="-184"/>
      <point x="160" y="-274" type="curve" smooth="yes"/>
      <point x="160" y="-310"/>
      <point x="183" y="-340"/>
      <point x="225" y="-340" type="curve" smooth="yes"/>
      <point x="347" y="-340"/>
      <point x="404" y="-207"/>
      <point x="476" y="61" type="curve"/>
      <point x="541" y="120"/>
      <point x="611" y="176"/>
      <point x="675" y="221" type="curve" smooth="yes"/>
      <point x="680" y="225"/>
      <point x="682" y="230"/>
      <point x="682" y="237" type="curve" smooth="yes"/>
      <point x="682" y="252"/>
      <point x="672" y="269"/>
      <point x="659" y="269" type="curve" smooth="yes"/>
      <point x="656" y="269"/>
      <point x="652" y="268"/>
      <point x="649" y="266" type="curve" smooth="yes"/>
      <point x="612" y="241"/>
      <point x="558" y="200"/>
    </contour>
  </outline>
</glyph>
<glyph name="asciicircum" format="1">
  <advance width="372"/>
  <unicode hex="005E"/>
  <outline>
    <contour>
      <point x="67" y="172" type="curve" smooth="yes"/>
      <point x="72" y="172"/>
      <point x="98" y="187"/>
      <point x="109" y="206" type="curve"/>
      <point x="198" y="384" type="line"/>
      <point x="268" y="219" type="line" smooth="yes"/>
      <point x="276" y="201"/>
      <point x="293" y="174"/>
      <point x="319" y="174" type="curve" smooth="yes"/>
      <point x="337" y="174"/>
      <point x="350" y="191"/>
      <point x="350" y="212" type="curve" smooth="yes"/>
      <point x="350" y="218"/>
      <point x="349" y="225"/>
      <point x="346" y="232" type="curve" smooth="yes"/>
      <point x="323" y="293"/>
      <point x="296" y="352"/>
      <point x="269" y="406" type="curve" smooth="yes"/>
      <point x="254" y="435"/>
      <point x="235" y="459"/>
      <point x="194" y="459" type="curve" smooth="yes"/>
      <point x="153" y="459"/>
      <point x="135" y="419"/>
      <point x="118" y="387" type="curve" smooth="yes"/>
      <point x="100" y="354"/>
      <point x="81" y="318"/>
      <point x="63" y="284" type="curve" smooth="yes"/>
      <point x="52" y="262"/>
      <point x="32" y="240"/>
      <point x="32" y="212" type="curve" smooth="yes"/>
      <point x="32" y="195"/>
      <point x="63" y="172"/>
    </contour>
  </outline>
</glyph>
<glyph name="a" format="1">
  <advance width="350"/>
  <unicode hex="0061"/>
  <outline>
    <contour>
      <point x="294" y="0" type="move" name="ogonek"/>
    </contour>
    <contour>
      <point x="236" y="339" type="move" name="top"/>
    </contour>
    <contour>
      <point x="21" y="104" type="curve" smooth="yes"/>
      <point x="21" y="43"/>
      <point x="53" y="-5"/>
      <point x="116" y="-5" type="curve" smooth="yes"/>
      <point x="161" y="-5"/>
      <point x="203" y="21"/>
      <point x="223" y="62" type="curve" smooth="yes"/>
      <point x="223" y="63"/>
      <point x="224" y="64"/>
      <point x="224" y="65" type="curve"/>
      <point x="229" y="25"/>
      <point x="256" y="0"/>
      <point x="294" y="0" type="curve" smooth="yes"/>
      <point x="350" y="0"/>
      <point x="404" y="51"/>
      <point x="429" y="85" type="curve" smooth="yes"/>
      <point x="430" y="88"/>
      <point x="431" y="93"/>
      <point x="431" y="98" type="curve" smooth="yes"/>
      <point x="431" y="117"/>
      <point x="422" y="145"/>
      <point x="407" y="145" type="curve" smooth="yes"/>
      <point x="403" y="145"/>
      <point x="398" y="142"/>
      <point x="393" y="136" type="curve" smooth="yes"/>
      <point x="376" y="114"/>
      <point x="336" y="69"/>
      <point x="303" y="69" type="curve" smooth="yes"/>
      <point x="291" y="69"/>
      <point x="286" y="80"/>
      <point x="286" y="93" type="curve" smooth="yes"/>
      <point x="286" y="97"/>
      <point x="286" y="100"/>
      <point x="287" y="104" type="curve" smooth="yes"/>
      <point x="315" y="276" type="line"/>
      <point x="315" y="282" type="line" smooth="yes"/>
      <point x="315" y="298"/>
      <point x="305" y="308"/>
      <point x="287" y="308" type="curve" smooth="yes"/>
      <point x="264" y="308" type="line"/>
      <point x="264" y="317"/>
      <point x="266" y="335"/>
      <point x="223" y="335" type="curve" smooth="yes"/>
      <point x="129" y="335"/>
      <point x="21" y="227"/>
    </contour>
    <contour>
      <point x="134" y="65" type="curve" smooth="yes"/>
      <point x="103" y="65"/>
      <point x="96" y="88"/>
      <point x="96" y="111" type="curve" smooth="yes"/>
      <point x="96" y="174"/>
      <point x="164" y="273"/>
      <point x="246" y="273" type="curve"/>
      <point x="219" y="161" type="line" smooth="yes"/>
      <point x="208" y="117"/>
      <point x="173" y="65"/>
    </contour>
  </outline>
</glyph>
<glyph name="g" format="1">
  <advance width="344"/>
  <unicode hex="0067"/>
  <outline>
    <contour>
      <point x="236" y="339" type="move" name="top"/>
    </contour>
    <contour>
      <point x="63" y="-317" type="curve" smooth="yes"/>
      <point x="112" y="-317"/>
      <point x="150" y="-295"/>
      <point x="187" y="-252" type="curve" smooth="yes"/>
      <point x="224" y="-208"/>
      <point x="248" y="-123"/>
      <point x="267" y="-37" type="curve"/>
      <point x="337" y="10"/>
      <point x="380" y="30"/>
      <point x="428" y="56" type="curve" smooth="yes"/>
      <point x="444" y="64"/>
      <point x="450" y="76"/>
      <point x="450" y="86" type="curve" smooth="yes"/>
      <point x="450" y="103"/>
      <point x="433" y="118"/>
      <point x="416" y="118" type="curve" smooth="yes"/>
      <point x="414" y="118"/>
      <point x="411" y="118"/>
      <point x="409" y="117" type="curve" smooth="yes"/>
      <point x="379" y="109"/>
      <point x="324" y="73"/>
      <point x="276" y="34" type="curve"/>
      <point x="332" y="271" type="line" smooth="yes"/>
      <point x="332" y="273"/>
      <point x="333" y="275"/>
      <point x="333" y="277" type="curve" smooth="yes"/>
      <point x="333" y="294"/>
      <point x="317" y="307"/>
      <point x="296" y="307" type="curve" smooth="yes"/>
      <point x="289" y="307"/>
      <point x="282" y="306"/>
      <point x="275" y="303" type="curve"/>
      <point x="275" y="303"/>
      <point x="278" y="326"/>
      <point x="240" y="327" type="curve" smooth="yes"/>
      <point x="236" y="327" type="line" smooth="yes"/>
      <point x="129" y="327"/>
      <point x="27" y="220"/>
      <point x="27" y="96" type="curve" smooth="yes"/>
      <point x="27" y="42"/>
      <point x="63" y="0"/>
      <point x="120" y="0" type="curve" smooth="yes"/>
      <point x="153" y="0"/>
      <point x="194" y="20"/>
      <point x="212" y="46" type="curve"/>
      <point x="202" y="-2" type="line"/>
      <point x="150" y="-42"/>
      <point x="89" y="-81"/>
      <point x="47" y="-129" type="curve" smooth="yes"/>
      <point x="20" y="-160"/>
      <point x="-20" y="-201"/>
      <point x="-20" y="-249" type="curve" smooth="yes"/>
      <point x="-20" y="-297"/>
      <point x="13" y="-317"/>
    </contour>
    <contour>
      <point x="142" y="65" type="curve" smooth="yes"/>
      <point x="113" y="65"/>
      <point x="107" y="89"/>
      <point x="107" y="111" type="curve" smooth="yes"/>
      <point x="107" y="174"/>
      <point x="171" y="264"/>
      <point x="256" y="264" type="curve"/>
      <point x="229" y="162" type="line" smooth="yes"/>
      <point x="220" y="130"/>
      <point x="200" y="65"/>
    </contour>
    <contour>
      <point x="58" y="-263" type="curve" smooth="yes"/>
      <point x="47" y="-263"/>
      <point x="42" y="-251"/>
      <point x="42" y="-242" type="curve" smooth="yes"/>
      <point x="42" y="-187"/>
      <point x="123" y="-128"/>
      <point x="198" y="-64" type="curve"/>
      <point x="186" y="-124"/>
      <point x="136" y="-263"/>
    </contour>
  </outline>
</glyph>
<glyph name="h" format="1">
  <advance width="379"/>
  <unicode hex="0068"/>
  <outline>
    <contour>
      <point x="131" y="494" type="move" name="mid"/>
    </contour>
    <contour>
      <point x="303" y="660" type="move" name="top"/>
    </contour>
    <contour>
      <point x="31" y="71" type="curve" smooth="yes"/>
      <point x="31" y="32"/>
      <point x="36" y="-1"/>
      <point x="71" y="-1" type="curve" smooth="yes"/>
      <point x="95" y="-1"/>
      <point x="102" y="16"/>
      <point x="110" y="39" type="curve" smooth="yes"/>
      <point x="134" y="107"/>
      <point x="202" y="186"/>
      <point x="246" y="219" type="curve" smooth="yes"/>
      <point x="254" y="225"/>
      <point x="259" y="227"/>
      <point x="262" y="227" type="curve" smooth="yes"/>
      <point x="264" y="227"/>
      <point x="265" y="226"/>
      <point x="265" y="223" type="curve" smooth="yes"/>
      <point x="265" y="204"/>
      <point x="217" y="123"/>
      <point x="217" y="59" type="curve" smooth="yes"/>
      <point x="217" y="18"/>
      <point x="241" y="-1"/>
      <point x="273" y="-1" type="curve" smooth="yes"/>
      <point x="278" y="-1"/>
      <point x="284" y="-1"/>
      <point x="289" y="0" type="curve" smooth="yes"/>
      <point x="353" y="11"/>
      <point x="407" y="42"/>
      <point x="444" y="67" type="curve" smooth="yes"/>
      <point x="458" y="77"/>
      <point x="464" y="91"/>
      <point x="464" y="103" type="curve" smooth="yes"/>
      <point x="464" y="123"/>
      <point x="453" y="142"/>
      <point x="438" y="142" type="curve" smooth="yes"/>
      <point x="435" y="142"/>
      <point x="432" y="141"/>
      <point x="429" y="139" type="curve" smooth="yes"/>
      <point x="419" y="131"/>
      <point x="334" y="66"/>
      <point x="305" y="66" type="curve" smooth="yes"/>
      <point x="297" y="66"/>
      <point x="295" y="69"/>
      <point x="295" y="76" type="curve" smooth="yes"/>
      <point x="295" y="123"/>
      <point x="342" y="208"/>
      <point x="365" y="276" type="curve" smooth="yes"/>
      <point x="367" y="281"/>
      <point x="367" y="285"/>
      <point x="367" y="289" type="curve" smooth="yes"/>
      <point x="367" y="313"/>
      <point x="345" y="330"/>
      <point x="314" y="330" type="curve" smooth="yes"/>
      <point x="284" y="330"/>
      <point x="182" y="276"/>
      <point x="109" y="147" type="curve"/>
      <point x="127" y="247" type="line"/>
      <point x="311" y="412"/>
      <point x="361" y="511"/>
      <point x="370" y="590" type="curve" smooth="yes"/>
      <point x="370" y="597" type="line" smooth="yes"/>
      <point x="370" y="644"/>
      <point x="341" y="677"/>
      <point x="292" y="677" type="curve" smooth="yes"/>
      <point x="119" y="677"/>
      <point x="42" y="308"/>
      <point x="33" y="114" type="curve" smooth="yes"/>
      <point x="32" y="103"/>
      <point x="31" y="87"/>
    </contour>
    <contour>
      <point x="269" y="596" type="curve" smooth="yes"/>
      <point x="283" y="596"/>
      <point x="290" y="590"/>
      <point x="290" y="575" type="curve" smooth="yes"/>
      <point x="290" y="512"/>
      <point x="206" y="397"/>
      <point x="136" y="323" type="curve"/>
      <point x="150" y="399"/>
      <point x="204" y="596"/>
    </contour>
  </outline>
</glyph>
<glyph name="i" format="1">
  <advance width="205"/>
  <unicode hex="0069"/>
  <outline>
    <contour>
      <point x="0" y="0" type="move" name="ogonek"/>
    </contour>
    <contour>
      <point x="39" y="96" type="curve" smooth="yes"/>
      <point x="39" y="38"/>
      <point x="78" y="-3"/>
      <point x="138" y="-3" type="curve" smooth="yes"/>
      <point x="187" y="-3"/>
      <point x="243" y="26"/>
      <point x="292" y="84" type="curve" smooth="yes"/>
      <point x="300" y="94"/>
      <point x="303" y="98"/>
      <point x="303" y="107" type="curve" smooth="yes"/>
      <point x="303" y="127"/>
      <point x="287" y="138"/>
      <point x="271" y="138" type="curve" smooth="yes"/>
      <point x="264" y="138"/>
      <point x="258" y="134"/>
      <point x="253" y="128" type="curve" smooth="yes"/>
      <point x="212" y="81"/>
      <point x="177" y="60"/>
      <point x="152" y="60" type="curve" smooth="yes"/>
      <point x="130" y="60"/>
      <point x="117" y="77"/>
      <point x="117" y="107" type="curve" smooth="yes"/>
      <point x="117" y="156"/>
      <point x="148" y="248"/>
      <point x="174" y="295" type="curve" smooth="yes"/>
      <point x="176" y="298"/>
      <point x="176" y="301"/>
      <point x="176" y="304" type="curve" smooth="yes"/>
      <point x="176" y="318"/>
      <point x="158" y="328"/>
      <point x="144" y="328" type="curve" smooth="yes"/>
      <point x="123" y="328"/>
      <point x="107" y="325"/>
      <point x="93" y="298" type="curve" smooth="yes"/>
      <point x="65" y="247"/>
      <point x="39" y="156"/>
    </contour>
    <contour>
      <point x="186" y="394" type="curve" smooth="yes"/>
      <point x="221" y="394"/>
      <point x="244" y="415"/>
      <point x="244" y="450" type="curve" smooth="yes"/>
      <point x="244" y="481"/>
      <point x="223" y="495"/>
      <point x="194" y="495" type="curve" smooth="yes"/>
      <point x="159" y="495"/>
      <point x="132" y="475"/>
      <point x="132" y="441" type="curve" smooth="yes"/>
      <point x="132" y="410"/>
      <point x="152" y="394"/>
    </contour>
  </outline>
</glyph>
<glyph name="k" format="1">
  <advance width="432"/>
  <unicode hex="006B"/>
  <outline>
    <contour>
      <point x="181" y="0" type="move" name="bot"/>
    </contour>
    <contour>
      <point x="240" y="72" type="curve" smooth="yes"/>
      <point x="240" y="11"/>
      <point x="294" y="-7"/>
      <point x="324" y="-7" type="curve" smooth="yes"/>
      <point x="390" y="-7"/>
      <point x="467" y="53"/>
      <point x="497" y="100" type="curve" smooth="yes"/>
      <point x="500" y="105"/>
      <point x="502" y="110"/>
      <point x="502" y="116" type="curve" smooth="yes"/>
      <point x="502" y="133"/>
      <point x="489" y="151"/>
      <point x="476" y="151" type="curve" smooth="yes"/>
      <point x="471" y="151"/>
      <point x="466" y="149"/>
      <point x="462" y="143" type="curve" smooth="yes"/>
      <point x="429" y="97"/>
      <point x="380" y="59"/>
      <point x="347" y="54" type="curve" smooth="yes"/>
      <point x="341" y="53"/>
      <point x="336" y="53"/>
      <point x="332" y="53" type="curve" smooth="yes"/>
      <point x="314" y="53"/>
      <point x="306" y="59"/>
      <point x="306" y="72" type="curve" smooth="yes"/>
      <point x="306" y="77" type="line" smooth="yes"/>
      <point x="317" y="144"/>
      <point x="437" y="158"/>
      <point x="437" y="256" type="curve" smooth="yes"/>
      <point x="437" y="296"/>
      <point x="413" y="322"/>
      <point x="370" y="322" type="curve" smooth="yes"/>
      <point x="287" y="322"/>
      <point x="206" y="241"/>
      <point x="114" y="77" type="curve"/>
      <point x="114" y="94"/>
      <point x="124" y="178"/>
      <point x="129" y="207" type="curve"/>
      <point x="171" y="243"/>
      <point x="372" y="449"/>
      <point x="372" y="580" type="curve" smooth="yes"/>
      <point x="372" y="623"/>
      <point x="348" y="656"/>
      <point x="302" y="656" type="curve" smooth="yes"/>
      <point x="102" y="656"/>
      <point x="46" y="229"/>
      <point x="46" y="79" type="curve" smooth="yes"/>
      <point x="46" y="46"/>
      <point x="53" y="-4"/>
      <point x="83" y="-4" type="curve" smooth="yes"/>
      <point x="170" y="-4"/>
      <point x="243" y="236"/>
      <point x="342" y="236" type="curve" smooth="yes"/>
      <point x="354" y="236"/>
      <point x="354" y="226"/>
      <point x="354" y="220" type="curve" smooth="yes"/>
      <point x="350" y="183"/>
      <point x="240" y="148"/>
    </contour>
    <contour>
      <point x="142" y="296" type="curve"/>
      <point x="158" y="398"/>
      <point x="219" y="574"/>
      <point x="278" y="574" type="curve" smooth="yes"/>
      <point x="291" y="574"/>
      <point x="296" y="568"/>
      <point x="296" y="554" type="curve" smooth="yes"/>
      <point x="296" y="473"/>
      <point x="211" y="376"/>
    </contour>
  </outline>
</glyph>
<glyph name="m" format="1">
  <advance width="527"/>
  <unicode hex="006D"/>
  <outline>
    <contour>
      <point x="324" y="339" type="move" name="top"/>
    </contour>
    <contour>
      <point x="209" y="52" type="curve" smooth="yes"/>
      <point x="209" y="24"/>
      <point x="215" y="0"/>
      <point x="248" y="-0" type="curve" smooth="yes"/>
      <point x="261" y="0"/>
      <point x="273" y="8"/>
      <point x="285" y="33" type="curve" smooth="yes"/>
      <point x="321" y="113"/>
      <point x="375" y="220"/>
      <point x="410" y="249" type="curve"/>
      <point x="391" y="189"/>
      <point x="369" y="114"/>
      <point x="365" y="76" type="curve"/>
      <point x="365" y="67" type="line" smooth="yes"/>
      <point x="365" y="29"/>
      <point x="388" y="-2"/>
      <point x="433" y="-2" type="curve" smooth="yes"/>
      <point x="435" y="-2" type="line" smooth="yes"/>
      <point x="477" y="-2"/>
      <point x="549" y="35"/>
      <point x="594" y="96" type="curve" smooth="yes"/>
      <point x="595" y="98"/>
      <point x="596" y="99"/>
      <point x="596" y="101" type="curve" smooth="yes"/>
      <point x="596" y="112"/>
      <point x="579" y="128"/>
      <point x="565" y="128" type="curve" smooth="yes"/>
      <point x="561" y="128"/>
      <point x="558" y="127"/>
      <point x="555" y="124" type="curve" smooth="yes"/>
      <point x="520" y="90"/>
      <point x="488" y="60"/>
      <point x="463" y="54" type="curve" smooth="yes"/>
      <point x="460" y="53"/>
      <point x="456" y="53"/>
      <point x="453" y="53" type="curve" smooth="yes"/>
      <point x="437" y="53"/>
      <point x="429" y="63"/>
      <point x="429" y="79" type="curve" smooth="yes"/>
      <point x="429" y="151"/>
      <point x="478" y="223"/>
      <point x="478" y="284" type="curve" smooth="yes"/>
      <point x="478" y="312"/>
      <point x="465" y="329"/>
      <point x="433" y="329" type="curve" smooth="yes"/>
      <point x="391" y="329"/>
      <point x="333" y="287"/>
      <point x="272" y="126" type="curve"/>
      <point x="291" y="201"/>
      <point x="304" y="270"/>
      <point x="304" y="298" type="curve" smooth="yes"/>
      <point x="304" y="318"/>
      <point x="284" y="328"/>
      <point x="268" y="328" type="curve" smooth="yes"/>
      <point x="232" y="328"/>
      <point x="168" y="274"/>
      <point x="104" y="114" type="curve"/>
      <point x="113" y="191"/>
      <point x="133" y="273"/>
      <point x="141" y="299" type="curve" smooth="yes"/>
      <point x="142" y="302"/>
      <point x="142" y="305"/>
      <point x="142" y="307" type="curve" smooth="yes"/>
      <point x="142" y="322"/>
      <point x="129" y="330"/>
      <point x="116" y="330" type="curve" smooth="yes"/>
      <point x="97" y="330"/>
      <point x="84" y="315"/>
      <point x="78" y="296" type="curve" smooth="yes"/>
      <point x="57" y="233"/>
      <point x="39" y="143"/>
      <point x="39" y="63" type="curve" smooth="yes"/>
      <point x="39" y="28"/>
      <point x="48" y="0"/>
      <point x="78" y="0" type="curve" smooth="yes"/>
      <point x="94" y="0"/>
      <point x="109" y="0"/>
      <point x="137" y="58" type="curve" smooth="yes"/>
      <point x="169" y="123"/>
      <point x="202" y="181"/>
      <point x="246" y="244" type="curve"/>
      <point x="228" y="175"/>
      <point x="209" y="91"/>
    </contour>
  </outline>
</glyph>
<glyph name="n" format="1">
  <advance width="366"/>
  <unicode hex="006E"/>
  <outline>
    <contour>
      <point x="236" y="339" type="move" name="top"/>
    </contour>
    <contour>
      <point x="138" y="425" type="move" name="caron.alt"/>
    </contour>
    <contour>
      <point x="350" y="292" type="curve" smooth="yes"/>
      <point x="350" y="310"/>
      <point x="327" y="331"/>
      <point x="300" y="331" type="curve" smooth="yes"/>
      <point x="250" y="331"/>
      <point x="180" y="269"/>
      <point x="109" y="146" type="curve"/>
      <point x="119" y="206"/>
      <point x="134" y="260"/>
      <point x="146" y="294" type="curve" smooth="yes"/>
      <point x="147" y="297"/>
      <point x="147" y="299"/>
      <point x="147" y="302" type="curve" smooth="yes"/>
      <point x="147" y="317"/>
      <point x="136" y="330"/>
      <point x="119" y="330" type="curve" smooth="yes"/>
      <point x="94" y="330"/>
      <point x="82" y="314"/>
      <point x="75" y="294" type="curve" smooth="yes"/>
      <point x="51" y="230"/>
      <point x="32" y="144"/>
      <point x="31" y="75" type="curve" smooth="yes"/>
      <point x="31" y="39"/>
      <point x="34" y="0"/>
      <point x="68" y="-1" type="curve" smooth="yes"/>
      <point x="95" y="-1"/>
      <point x="102" y="11"/>
      <point x="114" y="41" type="curve" smooth="yes"/>
      <point x="133" y="88"/>
      <point x="231" y="219"/>
      <point x="254" y="228" type="curve"/>
      <point x="255" y="228" type="line" smooth="yes"/>
      <point x="257" y="228"/>
      <point x="257" y="227"/>
      <point x="257" y="224" type="curve" smooth="yes"/>
      <point x="257" y="205"/>
      <point x="217" y="119"/>
      <point x="217" y="62" type="curve" smooth="yes"/>
      <point x="217" y="10"/>
      <point x="246" y="-1"/>
      <point x="275" y="-1" type="curve" smooth="yes"/>
      <point x="309" y="-1"/>
      <point x="387" y="23"/>
      <point x="435" y="84" type="curve" smooth="yes"/>
      <point x="436" y="86"/>
      <point x="437" y="88"/>
      <point x="437" y="91" type="curve" smooth="yes"/>
      <point x="437" y="105"/>
      <point x="424" y="130"/>
      <point x="410" y="130" type="curve" smooth="yes"/>
      <point x="407" y="130"/>
      <point x="404" y="129"/>
      <point x="401" y="126" type="curve" smooth="yes"/>
      <point x="363" y="90"/>
      <point x="324" y="70"/>
      <point x="309" y="67" type="curve" smooth="yes"/>
      <point x="307" y="67"/>
      <point x="305" y="66"/>
      <point x="304" y="66" type="curve" smooth="yes"/>
      <point x="298" y="66"/>
      <point x="295" y="71"/>
      <point x="295" y="80" type="curve" smooth="yes"/>
      <point x="295" y="83"/>
      <point x="295" y="87"/>
      <point x="296" y="91" type="curve" smooth="yes"/>
      <point x="303" y="143"/>
      <point x="350" y="251"/>
    </contour>
  </outline>
</glyph>
<glyph name="p" format="1">
  <advance width="348"/>
  <unicode hex="0070"/>
  <outline>
    <contour>
      <point x="236" y="339" type="move" name="top"/>
    </contour>
    <contour>
      <point x="332" y="194" type="curve"/>
      <point x="333" y="204"/>
      <point x="334" y="215"/>
      <point x="334" y="225" type="curve" smooth="yes"/>
      <point x="334" y="283"/>
      <point x="306" y="330"/>
      <point x="242" y="330" type="curve" smooth="yes"/>
      <point x="102" y="330"/>
      <point x="68" y="194"/>
      <point x="36" y="87" type="curve" smooth="yes"/>
      <point x="29" y="66"/>
      <point x="-15" y="-149"/>
      <point x="-19" y="-197" type="curve" smooth="yes"/>
      <point x="-19" y="-201"/>
      <point x="-20" y="-205"/>
      <point x="-20" y="-209" type="curve" smooth="yes"/>
      <point x="-20" y="-226"/>
      <point x="-9" y="-231"/>
      <point x="-5" y="-240" type="curve"/>
      <point x="15" y="-240"/>
      <point x="47" y="-221"/>
      <point x="52" y="-205" type="curve" smooth="yes"/>
      <point x="62" y="-176"/>
      <point x="90" y="-8"/>
      <point x="98" y="21" type="curve"/>
      <point x="116" y="4"/>
      <point x="136" y="-5"/>
      <point x="157" y="-5" type="curve" smooth="yes"/>
      <point x="229" y="-5"/>
      <point x="287" y="56"/>
      <point x="315" y="129" type="curve"/>
      <point x="374" y="143"/>
      <point x="451" y="197"/>
      <point x="482" y="235" type="curve" smooth="yes"/>
      <point x="489" y="240"/>
      <point x="493" y="249"/>
      <point x="493" y="258" type="curve" smooth="yes"/>
      <point x="493" y="272"/>
      <point x="485" y="285"/>
      <point x="474" y="285" type="curve" smooth="yes"/>
      <point x="471" y="285"/>
      <point x="468" y="284"/>
      <point x="464" y="282" type="curve" smooth="yes"/>
      <point x="431" y="251"/>
      <point x="372" y="203"/>
    </contour>
    <contour>
      <point x="248" y="134" type="curve"/>
      <point x="229" y="94"/>
      <point x="196" y="62"/>
      <point x="160" y="62" type="curve" smooth="yes"/>
      <point x="144" y="62"/>
      <point x="127" y="68"/>
      <point x="110" y="82" type="curve"/>
      <point x="125" y="132"/>
      <point x="142" y="265"/>
      <point x="222" y="265" type="curve" smooth="yes"/>
      <point x="238" y="265"/>
      <point x="250" y="252"/>
      <point x="257" y="234" type="curve" smooth="yes"/>
      <point x="255" y="233"/>
      <point x="254" y="231"/>
      <point x="253" y="229" type="curve" smooth="yes"/>
      <point x="227" y="208"/>
      <point x="223" y="198"/>
      <point x="223" y="176" type="curve" smooth="yes"/>
      <point x="223" y="156"/>
      <point x="232" y="142"/>
    </contour>
  </outline>
</glyph>
<glyph name="t" format="1">
  <advance width="260"/>
  <unicode hex="0074"/>
  <outline>
    <contour>
      <point x="154" y="16" type="move" name="bot"/>
    </contour>
    <contour>
      <point x="119" y="318" type="move" name="mid"/>
    </contour>
    <contour>
      <point x="359" y="551" type="move" name="caron.alt"/>
    </contour>
    <contour>
      <point x="49" y="162" type="line" smooth="yes"/>
      <point x="49" y="68"/>
      <point x="71" y="-3"/>
      <point x="154" y="-3" type="curve" smooth="yes"/>
      <point x="212" y="-3"/>
      <point x="257" y="25"/>
      <point x="309" y="83" type="curve" smooth="yes"/>
      <point x="317" y="92"/>
      <point x="321" y="101"/>
      <point x="321" y="109" type="curve" smooth="yes"/>
      <point x="321" y="126"/>
      <point x="305" y="138"/>
      <point x="291" y="138" type="curve" smooth="yes"/>
      <point x="285" y="138"/>
      <point x="279" y="136"/>
      <point x="274" y="131" type="curve" smooth="yes"/>
      <point x="239" y="92"/>
      <point x="199" y="61"/>
      <point x="163" y="61" type="curve" smooth="yes"/>
      <point x="131" y="61"/>
      <point x="122" y="106"/>
      <point x="122" y="156" type="curve" smooth="yes"/>
      <point x="122" y="173"/>
      <point x="123" y="190"/>
      <point x="124" y="206" type="curve"/>
      <point x="178" y="228"/>
      <point x="243" y="251"/>
      <point x="280" y="257" type="curve" smooth="yes"/>
      <point x="292" y="259"/>
      <point x="297" y="268"/>
      <point x="297" y="278" type="curve" smooth="yes"/>
      <point x="297" y="291"/>
      <point x="287" y="305"/>
      <point x="271" y="305" type="curve" smooth="yes"/>
      <point x="269" y="305"/>
      <point x="267" y="305"/>
      <point x="264" y="304" type="curve" smooth="yes"/>
      <point x="241" y="300"/>
      <point x="207" y="290"/>
      <point x="168" y="277" type="curve"/>
      <point x="245" y="341"/>
      <point x="331" y="445"/>
      <point x="340" y="552" type="curve"/>
      <point x="340" y="559" type="line" smooth="yes"/>
      <point x="340" y="592"/>
      <point x="320" y="624"/>
      <point x="275" y="624" type="curve" smooth="yes"/>
      <point x="150" y="624"/>
      <point x="73" y="382"/>
      <point x="54" y="231" type="curve"/>
      <point x="41" y="225"/>
      <point x="28" y="219"/>
      <point x="15" y="212" type="curve" smooth="yes"/>
      <point x="7" y="208"/>
      <point x="4" y="200"/>
      <point x="4" y="192" type="curve" smooth="yes"/>
      <point x="4" y="178"/>
      <point x="13" y="164"/>
      <point x="27" y="164" type="curve" smooth="yes"/>
      <point x="35" y="164"/>
      <point x="43" y="169"/>
      <point x="49" y="173" type="curve"/>
    </contour>
    <contour>
      <point x="136" y="303" type="curve"/>
      <point x="150" y="392"/>
      <point x="202" y="541"/>
      <point x="263" y="541" type="curve" smooth="yes"/>
      <point x="269" y="540"/>
      <point x="271" y="536"/>
      <point x="271" y="530" type="curve" smooth="yes"/>
      <point x="271" y="441"/>
      <point x="193" y="366"/>
    </contour>
  </outline>
</glyph>
<glyph name="v" format="1">
  <advance width="330"/>
  <unicode hex="0076"/>
  <outline>
    <contour>
      <point x="476" y="250" type="curve" smooth="yes"/>
      <point x="478" y="254"/>
      <point x="479" y="259"/>
      <point x="479" y="263" type="curve" smooth="yes"/>
      <point x="479" y="280"/>
      <point x="464" y="297"/>
      <point x="450" y="297" type="curve" smooth="yes"/>
      <point x="444" y="297"/>
      <point x="439" y="295"/>
      <point x="434" y="288" type="curve" smooth="yes"/>
      <point x="404" y="247"/>
      <point x="357" y="218"/>
      <point x="308" y="209" type="curve"/>
      <point x="318" y="234"/>
      <point x="327" y="261"/>
      <point x="334" y="290" type="curve" smooth="yes"/>
      <point x="335" y="294"/>
      <point x="336" y="298"/>
      <point x="336" y="302" type="curve" smooth="yes"/>
      <point x="336" y="320"/>
      <point x="323" y="330"/>
      <point x="307" y="330" type="curve" smooth="yes"/>
      <point x="276" y="330"/>
      <point x="230" y="291"/>
      <point x="230" y="197" type="curve" smooth="yes"/>
      <point x="230" y="181" type="line" smooth="yes"/>
      <point x="191" y="95"/>
      <point x="144" y="65"/>
      <point x="144" y="65" type="curve" smooth="yes"/>
      <point x="143" y="65"/>
      <point x="124" y="102"/>
      <point x="124" y="176" type="curve" smooth="yes"/>
      <point x="124" y="208"/>
      <point x="127" y="247"/>
      <point x="137" y="293" type="curve" smooth="yes"/>
      <point x="137" y="295"/>
      <point x="138" y="296"/>
      <point x="138" y="298" type="curve" smooth="yes"/>
      <point x="138" y="316"/>
      <point x="118" y="329"/>
      <point x="99" y="329" type="curve" smooth="yes"/>
      <point x="84" y="329"/>
      <point x="70" y="322"/>
      <point x="64" y="303" type="curve" smooth="yes"/>
      <point x="48" y="250"/>
      <point x="41" y="202"/>
      <point x="41" y="160" type="curve" smooth="yes"/>
      <point x="41" y="56"/>
      <point x="84" y="-9"/>
      <point x="126" y="-9" type="curve" smooth="yes"/>
      <point x="133" y="-9"/>
      <point x="140" y="-7"/>
      <point x="147" y="-3" type="curve" smooth="yes"/>
      <point x="197" y="23"/>
      <point x="243" y="76"/>
      <point x="280" y="147" type="curve" smooth="yes"/>
      <point x="283" y="147" type="line" smooth="yes"/>
      <point x="354" y="147"/>
      <point x="447" y="198"/>
    </contour>
  </outline>
</glyph>
<glyph name="w" format="1">
  <advance width="576"/>
  <unicode hex="0077"/>
  <outline>
    <contour>
      <point x="356" y="339" type="move" name="top"/>
    </contour>
    <contour>
      <point x="516" y="234" type="curve"/>
      <point x="490" y="248"/>
      <point x="479" y="271"/>
      <point x="479" y="290" type="curve" smooth="yes"/>
      <point x="479" y="309"/>
      <point x="490" y="325"/>
      <point x="505" y="325" type="curve" smooth="yes"/>
      <point x="518" y="325"/>
      <point x="528" y="313"/>
      <point x="528" y="289" type="curve" smooth="yes"/>
      <point x="528" y="275"/>
      <point x="524" y="257"/>
    </contour>
    <contour>
      <point x="161" y="56" type="curve" smooth="yes"/>
      <point x="133" y="56"/>
      <point x="122" y="83"/>
      <point x="122" y="120" type="curve" smooth="yes"/>
      <point x="122" y="127"/>
      <point x="122" y="134"/>
      <point x="123" y="141" type="curve" smooth="yes"/>
      <point x="130" y="217"/>
      <point x="195" y="291"/>
      <point x="200" y="298" type="curve" smooth="yes"/>
      <point x="201" y="300"/>
      <point x="202" y="302"/>
      <point x="202" y="305" type="curve" smooth="yes"/>
      <point x="202" y="318"/>
      <point x="185" y="336"/>
      <point x="165" y="336" type="curve" smooth="yes"/>
      <point x="152" y="336"/>
      <point x="139" y="330"/>
      <point x="126" y="311" type="curve" smooth="yes"/>
      <point x="113" y="290"/>
      <point x="46" y="207"/>
      <point x="46" y="116" type="curve" smooth="yes"/>
      <point x="46" y="35"/>
      <point x="90" y="-11"/>
      <point x="154" y="-11" type="curve" smooth="yes"/>
      <point x="205" y="-11"/>
      <point x="241" y="22"/>
      <point x="271" y="69" type="curve"/>
      <point x="279" y="28"/>
      <point x="302" y="-13"/>
      <point x="356" y="-13" type="curve" smooth="yes"/>
      <point x="426" y="-13"/>
      <point x="497" y="48"/>
      <point x="547" y="142" type="curve" smooth="yes"/>
      <point x="552" y="151"/>
      <point x="556" y="161"/>
      <point x="560" y="170" type="curve"/>
      <point x="565" y="170"/>
      <point x="571" y="169"/>
      <point x="576" y="169" type="curve" smooth="yes"/>
      <point x="611" y="169"/>
      <point x="653" y="177"/>
      <point x="700" y="197" type="curve" smooth="yes"/>
      <point x="711" y="201"/>
      <point x="715" y="211"/>
      <point x="715" y="220" type="curve" smooth="yes"/>
      <point x="715" y="233"/>
      <point x="705" y="247"/>
      <point x="691" y="247" type="curve" smooth="yes"/>
      <point x="686" y="247"/>
      <point x="681" y="245"/>
      <point x="676" y="242" type="curve" smooth="yes"/>
      <point x="637" y="229"/>
      <point x="605" y="223"/>
      <point x="579" y="222" type="curve"/>
      <point x="585" y="243"/>
      <point x="587" y="263"/>
      <point x="587" y="280" type="curve" smooth="yes"/>
      <point x="587" y="342"/>
      <point x="555" y="379"/>
      <point x="508" y="381" type="curve" smooth="yes"/>
      <point x="448" y="381"/>
      <point x="418" y="343"/>
      <point x="418" y="299" type="curve" smooth="yes"/>
      <point x="418" y="258"/>
      <point x="445" y="212"/>
      <point x="495" y="187" type="curve"/>
      <point x="492" y="181"/>
      <point x="489" y="175"/>
      <point x="485" y="169" type="curve" smooth="yes"/>
      <point x="457" y="107"/>
      <point x="407" y="53"/>
      <point x="362" y="53" type="curve" smooth="yes"/>
      <point x="335" y="53"/>
      <point x="321" y="76"/>
      <point x="321" y="113" type="curve" smooth="yes"/>
      <point x="321" y="134"/>
      <point x="325" y="159"/>
      <point x="335" y="188" type="curve" smooth="yes"/>
      <point x="350" y="231"/>
      <point x="376" y="271"/>
      <point x="376" y="294" type="curve" smooth="yes"/>
      <point x="376" y="308"/>
      <point x="366" y="316"/>
      <point x="341" y="316" type="curve" smooth="yes"/>
      <point x="338" y="316" type="line" smooth="yes"/>
      <point x="318" y="316"/>
      <point x="299" y="276"/>
      <point x="286" y="227" type="curve"/>
      <point x="270" y="191" type="line" smooth="yes"/>
      <point x="223" y="83"/>
      <point x="189" y="56"/>
    </contour>
  </outline>
</glyph>
<glyph name="bar" format="1">
  <advance width="426"/>
  <unicode hex="007C"/>
  <outline>
    <contour>
      <point x="176" y="-28" type="line" smooth="yes"/>
      <point x="175" y="-32"/>
      <point x="175" y="-36"/>
      <point x="175" y="-39" type="curve" smooth="yes"/>
      <point x="175" y="-59"/>
      <point x="189" y="-73"/>
      <point x="205" y="-73" type="curve" smooth="yes"/>
      <point x="221" y="-73"/>
      <point x="239" y="-59"/>
      <point x="247" y="-24" type="curve" smooth="yes"/>
      <point x="404" y="645" type="line" smooth="yes"/>
      <point x="405" y="650"/>
      <point x="406" y="655"/>
      <point x="406" y="659" type="curve" smooth="yes"/>
      <point x="406" y="682"/>
      <point x="391" y="694"/>
      <point x="375" y="694" type="curve" smooth="yes"/>
      <point x="359" y="694"/>
      <point x="342" y="682"/>
      <point x="335" y="655" type="curve" smooth="yes"/>
    </contour>
  </outline>
</glyph>
<glyph name="registered" format="1">
  <advance width="623"/>
  <unicode hex="00AE"/>
  <outline>
    <contour>
      <point x="332" y="136" type="curve" smooth="yes"/>
      <point x="334" y="118"/>
      <point x="350" y="109"/>
      <point x="365" y="109" type="curve" smooth="yes"/>
      <point x="380" y="109"/>
      <point x="394" y="119"/>
      <point x="394" y="137" type="curve" smooth="yes"/>
      <point x="394" y="142" type="line" smooth="yes"/>
      <point x="376" y="275" type="line"/>
      <point x="422" y="289"/>
      <point x="450" y="319"/>
      <point x="450" y="361" type="curve" smooth="yes"/>
      <point x="450" y="412"/>
      <point x="407" y="431"/>
      <point x="355" y="431" type="curve" smooth="yes"/>
      <point x="334" y="431"/>
      <point x="290" y="427"/>
      <point x="270" y="427" type="curve"/>
      <point x="234" y="313" type="line"/>
      <point x="229" y="313"/>
      <point x="222" y="315"/>
      <point x="216" y="315" type="curve" smooth="yes"/>
      <point x="209" y="315"/>
      <point x="206" y="307"/>
      <point x="206" y="301" type="curve" smooth="yes"/>
      <point x="206" y="290"/>
      <point x="215" y="285"/>
      <point x="225" y="279" type="curve"/>
      <point x="193" y="162" type="line" smooth="yes"/>
      <point x="192" y="159"/>
      <point x="192" y="156"/>
      <point x="192" y="153" type="curve" smooth="yes"/>
      <point x="192" y="136"/>
      <point x="207" y="123"/>
      <point x="222" y="123" type="curve" smooth="yes"/>
      <point x="234" y="123"/>
      <point x="246" y="131"/>
      <point x="251" y="151" type="curve" smooth="yes"/>
      <point x="281" y="267" type="line"/>
      <point x="315" y="267" type="line"/>
      <point x="318" y="257"/>
      <point x="326" y="177"/>
    </contour>
    <contour>
      <point x="356" y="477" type="curve" smooth="yes"/>
      <point x="467" y="477"/>
      <point x="530" y="423"/>
      <point x="530" y="318" type="curve" smooth="yes"/>
      <point x="530" y="183"/>
      <point x="449" y="69"/>
      <point x="312" y="69" type="curve" smooth="yes"/>
      <point x="194" y="69"/>
      <point x="107" y="128"/>
      <point x="107" y="248" type="curve" smooth="yes"/>
      <point x="107" y="371"/>
      <point x="185" y="477"/>
    </contour>
    <contour>
      <point x="597" y="315" type="curve" smooth="yes"/>
      <point x="597" y="460"/>
      <point x="498" y="532"/>
      <point x="346" y="532" type="curve" smooth="yes"/>
      <point x="177" y="532"/>
      <point x="46" y="423"/>
      <point x="46" y="248" type="curve" smooth="yes"/>
      <point x="46" y="100"/>
      <point x="158" y="13"/>
      <point x="314" y="13" type="curve" smooth="yes"/>
      <point x="447" y="13"/>
      <point x="597" y="114"/>
    </contour>
    <contour>
      <point x="294" y="308" type="curve" smooth="yes"/>
      <point x="315" y="385" type="line"/>
      <point x="335" y="385" type="line" smooth="yes"/>
      <point x="376" y="385"/>
      <point x="394" y="377"/>
      <point x="394" y="354" type="curve" smooth="yes"/>
      <point x="394" y="323"/>
      <point x="342" y="307"/>
      <point x="306" y="307" type="curve" smooth="yes"/>
      <point x="302" y="307"/>
      <point x="298" y="308"/>
    </contour>
  </outline>
</glyph>
<glyph name="mu" format="1">
  <advance width="347"/>
  <unicode hex="00B5"/>
  <outline>
    <contour>
      <point x="124" y="61" type="curve" smooth="yes"/>
      <point x="101" y="61"/>
      <point x="90" y="80"/>
      <point x="90" y="110" type="curve" smooth="yes"/>
      <point x="90" y="117" type="line" smooth="yes"/>
      <point x="96" y="204"/>
      <point x="142" y="286"/>
      <point x="142" y="305" type="curve" smooth="yes"/>
      <point x="142" y="319"/>
      <point x="127" y="330"/>
      <point x="108" y="330" type="curve" smooth="yes"/>
      <point x="92" y="330"/>
      <point x="81" y="326"/>
      <point x="73" y="313" type="curve" smooth="yes"/>
      <point x="65" y="300"/>
      <point x="45" y="254"/>
      <point x="31" y="194" type="curve" smooth="yes"/>
      <point x="-40" y="-85" type="line" smooth="yes"/>
      <point x="-41" y="-89"/>
      <point x="-41" y="-93"/>
      <point x="-41" y="-96" type="curve" smooth="yes"/>
      <point x="-41" y="-116"/>
      <point x="-27" y="-129"/>
      <point x="-11" y="-129" type="curve" smooth="yes"/>
      <point x="5" y="-129"/>
      <point x="22" y="-116"/>
      <point x="31" y="-82" type="curve" smooth="yes"/>
      <point x="55" y="10" type="line"/>
      <point x="68" y="1"/>
      <point x="85" y="-5"/>
      <point x="106" y="-5" type="curve" smooth="yes"/>
      <point x="168" y="-5"/>
      <point x="209" y="55"/>
      <point x="220" y="86" type="curve"/>
      <point x="217" y="55" type="line"/>
      <point x="218" y="15"/>
      <point x="236" y="-4"/>
      <point x="277" y="-4" type="curve" smooth="yes"/>
      <point x="327" y="-4"/>
      <point x="413" y="52"/>
      <point x="437" y="97" type="curve"/>
      <point x="439" y="111"/>
      <point x="417" y="131"/>
      <point x="400" y="131" type="curve" smooth="yes"/>
      <point x="393" y="131"/>
      <point x="392" y="128"/>
      <point x="383" y="121" type="curve" smooth="yes"/>
      <point x="373" y="110"/>
      <point x="330" y="65"/>
      <point x="300" y="63" type="curve" smooth="yes"/>
      <point x="292" y="63"/>
      <point x="286" y="68"/>
      <point x="286" y="86" type="curve" smooth="yes"/>
      <point x="286" y="89"/>
      <point x="287" y="94"/>
      <point x="287" y="98" type="curve" smooth="yes"/>
      <point x="296" y="182"/>
      <point x="323" y="270"/>
      <point x="332" y="297" type="curve" smooth="yes"/>
      <point x="332" y="298"/>
      <point x="333" y="300"/>
      <point x="333" y="301" type="curve" smooth="yes"/>
      <point x="333" y="316"/>
      <point x="315" y="330"/>
      <point x="299" y="330" type="curve" smooth="yes"/>
      <point x="276" y="330"/>
      <point x="265" y="326"/>
      <point x="251" y="279" type="curve" smooth="yes"/>
      <point x="224" y="179" type="line" smooth="yes"/>
      <point x="202" y="101"/>
      <point x="157" y="61"/>
    </contour>
  </outline>
</glyph>
<glyph name="paragraph" format="1">
  <advance width="447"/>
  <unicode hex="00B6"/>
  <outline>
    <contour>
      <point x="229" y="-25" type="curve" smooth="yes"/>
      <point x="328" y="502" type="line"/>
      <point x="342" y="502"/>
      <point x="380" y="500"/>
      <point x="390" y="498" type="curve"/>
      <point x="299" y="-11" type="line" smooth="yes"/>
      <point x="298" y="-14"/>
      <point x="298" y="-17"/>
      <point x="298" y="-20" type="curve" smooth="yes"/>
      <point x="298" y="-44"/>
      <point x="319" y="-55"/>
      <point x="340" y="-55" type="curve" smooth="yes"/>
      <point x="360" y="-55"/>
      <point x="379" y="-45"/>
      <point x="383" y="-25" type="curve" smooth="yes"/>
      <point x="464" y="417" type="line" smooth="yes"/>
      <point x="471" y="453"/>
      <point x="482" y="487"/>
      <point x="482" y="519" type="curve" smooth="yes"/>
      <point x="482" y="596"/>
      <point x="376" y="596"/>
      <point x="294" y="596" type="curve" smooth="yes"/>
      <point x="208" y="596"/>
      <point x="57" y="552"/>
      <point x="57" y="442" type="curve" smooth="yes"/>
      <point x="57" y="355"/>
      <point x="140" y="316"/>
      <point x="207" y="316" type="curve"/>
      <point x="147" y="-16" type="line" smooth="yes"/>
      <point x="147" y="-18"/>
      <point x="146" y="-20"/>
      <point x="146" y="-22" type="curve" smooth="yes"/>
      <point x="146" y="-44"/>
      <point x="169" y="-59"/>
      <point x="190" y="-59" type="curve" smooth="yes"/>
      <point x="208" y="-59"/>
      <point x="225" y="-49"/>
    </contour>
  </outline>
</glyph>
<glyph name="onequarter" format="1">
  <advance width="998"/>
  <unicode hex="00BC"/>
  <outline>
    <contour>
      <point x="824" y="-20" type="curve" smooth="yes"/>
      <point x="844" y="-20"/>
      <point x="856" y="-16"/>
      <point x="865" y="21" type="curve" smooth="yes"/>
      <point x="877" y="69" type="line"/>
      <point x="939" y="70" type="line" smooth="yes"/>
      <point x="960" y="71"/>
      <point x="972" y="92"/>
      <point x="972" y="110" type="curve" smooth="yes"/>
      <point x="972" y="123"/>
      <point x="966" y="135"/>
      <point x="953" y="135" type="curve" smooth="yes"/>
      <point x="952" y="135" type="line"/>
      <point x="891" y="135" type="line"/>
      <point x="898" y="167"/>
      <point x="923" y="268"/>
      <point x="930" y="297" type="curve" smooth="yes"/>
      <point x="930" y="299"/>
      <point x="931" y="300"/>
      <point x="931" y="302" type="curve" smooth="yes"/>
      <point x="931" y="316"/>
      <point x="916" y="321"/>
      <point x="900" y="321" type="curve" smooth="yes"/>
      <point x="876" y="321"/>
      <point x="864" y="309"/>
      <point x="857" y="288" type="curve" smooth="yes"/>
      <point x="851" y="263"/>
      <point x="822" y="157"/>
      <point x="818" y="136" type="curve"/>
      <point x="728" y="136" type="line"/>
      <point x="760" y="239"/>
      <point x="803" y="368"/>
      <point x="827" y="449" type="curve" smooth="yes"/>
      <point x="828" y="451"/>
      <point x="828" y="454"/>
      <point x="828" y="456" type="curve" smooth="yes"/>
      <point x="828" y="472"/>
      <point x="810" y="482"/>
      <point x="792" y="482" type="curve" smooth="yes"/>
      <point x="777" y="482"/>
      <point x="762" y="475"/>
      <point x="756" y="459" type="curve" smooth="yes"/>
      <point x="729" y="382"/>
      <point x="671" y="207"/>
      <point x="647" y="130" type="curve" smooth="yes"/>
      <point x="643" y="116"/>
      <point x="641" y="105"/>
      <point x="641" y="96" type="curve" smooth="yes"/>
      <point x="641" y="74"/>
      <point x="653" y="68"/>
      <point x="673" y="68" type="curve" smooth="yes"/>
      <point x="802" y="68" type="line"/>
      <point x="792" y="22" type="line" smooth="yes"/>
      <point x="791" y="17"/>
      <point x="790" y="12"/>
      <point x="790" y="8" type="curve" smooth="yes"/>
      <point x="790" y="-9"/>
      <point x="799" y="-20"/>
    </contour>
    <contour>
      <point x="402" y="-16" type="curve" smooth="yes"/>
      <point x="656" y="571" type="line" smooth="yes"/>
      <point x="658" y="576"/>
      <point x="659" y="581"/>
      <point x="659" y="586" type="curve" smooth="yes"/>
      <point x="659" y="605"/>
      <point x="644" y="621"/>
      <point x="626" y="621" type="curve" smooth="yes"/>
      <point x="614" y="621"/>
      <point x="600" y="613"/>
      <point x="591" y="593" type="curve" smooth="yes"/>
      <point x="337" y="20" type="line" smooth="yes"/>
      <point x="334" y="13"/>
      <point x="333" y="7"/>
      <point x="333" y="1" type="curve" smooth="yes"/>
      <point x="333" y="-22"/>
      <point x="353" y="-36"/>
      <point x="372" y="-36" type="curve" smooth="yes"/>
      <point x="384" y="-36"/>
      <point x="396" y="-30"/>
    </contour>
    <contour>
      <point x="211" y="216" type="curve" smooth="yes"/>
      <point x="245" y="375"/>
      <point x="291" y="622"/>
      <point x="297" y="653" type="curve" smooth="yes"/>
      <point x="298" y="660"/>
      <point x="299" y="666"/>
      <point x="299" y="672" type="curve" smooth="yes"/>
      <point x="299" y="687"/>
      <point x="295" y="697"/>
      <point x="283" y="697" type="curve" smooth="yes"/>
      <point x="278" y="697" type="line" smooth="yes"/>
      <point x="243" y="690"/>
      <point x="157" y="672"/>
      <point x="129" y="664" type="curve" smooth="yes"/>
      <point x="118" y="660"/>
      <point x="113" y="644"/>
      <point x="113" y="628" type="curve" smooth="yes"/>
      <point x="113" y="610"/>
      <point x="120" y="593"/>
      <point x="131" y="593" type="curve" smooth="yes"/>
      <point x="134" y="593" type="line" smooth="yes"/>
      <point x="147" y="596"/>
      <point x="196" y="610"/>
      <point x="212" y="616" type="curve"/>
      <point x="188" y="503"/>
      <point x="168" y="409"/>
      <point x="131" y="228" type="curve" smooth="yes"/>
      <point x="131" y="226"/>
      <point x="130" y="224"/>
      <point x="130" y="222" type="curve" smooth="yes"/>
      <point x="130" y="203"/>
      <point x="150" y="195"/>
      <point x="170" y="195" type="curve" smooth="yes"/>
      <point x="189" y="195"/>
      <point x="208" y="202"/>
    </contour>
  </outline>
</glyph>
<glyph name="onehalf" format="1">
  <advance width="998"/>
  <unicode hex="00BD"/>
  <outline>
    <contour>
      <point x="720" y="370" type="curve" smooth="yes"/>
      <point x="720" y="409"/>
      <point x="768" y="434"/>
      <point x="807" y="434" type="curve" smooth="yes"/>
      <point x="861" y="434"/>
      <point x="888" y="389"/>
      <point x="888" y="316" type="curve" smooth="yes"/>
      <point x="888" y="253"/>
      <point x="867" y="183"/>
      <point x="818" y="135" type="curve"/>
      <point x="786" y="157"/>
      <point x="749" y="178"/>
      <point x="703" y="178" type="curve" smooth="yes"/>
      <point x="653" y="178"/>
      <point x="621" y="144"/>
      <point x="621" y="94" type="curve" smooth="yes"/>
      <point x="621" y="39"/>
      <point x="668" y="0"/>
      <point x="723" y="0" type="curve" smooth="yes"/>
      <point x="764" y="0"/>
      <point x="797" y="22"/>
      <point x="824" y="45" type="curve"/>
      <point x="847" y="26"/>
      <point x="876" y="0"/>
      <point x="915" y="0" type="curve" smooth="yes"/>
      <point x="959" y="0"/>
      <point x="974" y="41"/>
      <point x="974" y="76" type="curve" smooth="yes"/>
      <point x="974" y="88"/>
      <point x="971" y="97"/>
      <point x="962" y="97" type="curve" smooth="yes"/>
      <point x="950" y="97"/>
      <point x="944" y="78"/>
      <point x="928" y="78" type="curve" smooth="yes"/>
      <point x="904" y="78"/>
      <point x="887" y="84"/>
      <point x="870" y="94" type="curve"/>
      <point x="924" y="153"/>
      <point x="968" y="237"/>
      <point x="968" y="321" type="curve" smooth="yes"/>
      <point x="968" y="456"/>
      <point x="881" y="499"/>
      <point x="809" y="499" type="curve" smooth="yes"/>
      <point x="717" y="499"/>
      <point x="646" y="451"/>
      <point x="646" y="359" type="curve" smooth="yes"/>
      <point x="646" y="315"/>
      <point x="662" y="286"/>
      <point x="701" y="286" type="curve" smooth="yes"/>
      <point x="724" y="286"/>
      <point x="731" y="293"/>
      <point x="731" y="307" type="curve" smooth="yes"/>
      <point x="731" y="321"/>
      <point x="720" y="346"/>
    </contour>
    <contour>
      <point x="714" y="62" type="curve" smooth="yes"/>
      <point x="692" y="62"/>
      <point x="680" y="78"/>
      <point x="680" y="92" type="curve" smooth="yes"/>
      <point x="680" y="104"/>
      <point x="688" y="114"/>
      <point x="704" y="114" type="curve" smooth="yes"/>
      <point x="727" y="114"/>
      <point x="759" y="104"/>
      <point x="776" y="93" type="curve"/>
      <point x="756" y="73"/>
      <point x="730" y="62"/>
    </contour>
    <contour>
      <point x="375" y="-16" type="curve" smooth="yes"/>
      <point x="628" y="571" type="line" smooth="yes"/>
      <point x="630" y="576"/>
      <point x="631" y="581"/>
      <point x="631" y="586" type="curve" smooth="yes"/>
      <point x="631" y="605"/>
      <point x="616" y="621"/>
      <point x="598" y="621" type="curve" smooth="yes"/>
      <point x="585" y="621"/>
      <point x="572" y="613"/>
      <point x="563" y="593" type="curve" smooth="yes"/>
      <point x="310" y="20" type="line" smooth="yes"/>
      <point x="307" y="13"/>
      <point x="306" y="7"/>
      <point x="306" y="1" type="curve" smooth="yes"/>
      <point x="306" y="-22"/>
      <point x="326" y="-36"/>
      <point x="345" y="-36" type="curve" smooth="yes"/>
      <point x="357" y="-36"/>
      <point x="369" y="-30"/>
    </contour>
    <contour>
      <point x="211" y="216" type="curve" smooth="yes"/>
      <point x="245" y="375"/>
      <point x="291" y="622"/>
      <point x="297" y="653" type="curve" smooth="yes"/>
      <point x="298" y="660"/>
      <point x="299" y="666"/>
      <point x="299" y="672" type="curve" smooth="yes"/>
      <point x="299" y="687"/>
      <point x="295" y="697"/>
      <point x="283" y="697" type="curve" smooth="yes"/>
      <point x="278" y="697" type="line"/>
      <point x="243" y="690"/>
      <point x="157" y="672"/>
      <point x="129" y="664" type="curve" smooth="yes"/>
      <point x="118" y="660"/>
      <point x="113" y="644"/>
      <point x="113" y="628" type="curve" smooth="yes"/>
      <point x="113" y="610"/>
      <point x="120" y="593"/>
      <point x="131" y="593" type="curve" smooth="yes"/>
      <point x="134" y="593" type="line"/>
      <point x="147" y="596"/>
      <point x="196" y="610"/>
      <point x="212" y="616" type="curve"/>
      <point x="188" y="503"/>
      <point x="168" y="409"/>
      <point x="131" y="228" type="curve" smooth="yes"/>
      <point x="131" y="226"/>
      <point x="130" y="224"/>
      <point x="130" y="222" type="curve" smooth="yes"/>
      <point x="130" y="203"/>
      <point x="150" y="195"/>
      <point x="170" y="195" type="curve" smooth="yes"/>
      <point x="189" y="195"/>
      <point x="208" y="202"/>
    </contour>
  </outline>
</glyph>
<glyph name="AE" format="1">
  <advance width="1237"/>
  <unicode hex="00C6"/>
  <outline>
    <contour>
      <point x="541" y="-46" type="move" name="ogonek"/>
    </contour>
    <contour>
      <point x="950" y="-87" type="move" name="bot"/>
    </contour>
    <contour>
      <point x="785" y="671" type="move" name="top"/>
    </contour>
    <contour>
      <point x="675" y="662" type="curve"/>
      <point x="626" y="686"/>
      <point x="575" y="697"/>
      <point x="520" y="697" type="curve" smooth="yes"/>
      <point x="295" y="697"/>
      <point x="59" y="501"/>
      <point x="59" y="194" type="curve" smooth="yes"/>
      <point x="59" y="29"/>
      <point x="139" y="-60"/>
      <point x="288" y="-60" type="curve" smooth="yes"/>
      <point x="375" y="-60"/>
      <point x="504" y="-13"/>
      <point x="550" y="99" type="curve"/>
      <point x="563" y="-21"/>
      <point x="671" y="-77"/>
      <point x="788" y="-77" type="curve" smooth="yes"/>
      <point x="791" y="-77" type="line" smooth="yes"/>
      <point x="909" y="-77"/>
      <point x="1036" y="-22"/>
      <point x="1082" y="79" type="curve" smooth="yes"/>
      <point x="1089" y="87"/>
      <point x="1092" y="96"/>
      <point x="1092" y="105" type="curve" smooth="yes"/>
      <point x="1092" y="126"/>
      <point x="1078" y="147"/>
      <point x="1059" y="147" type="curve" smooth="yes"/>
      <point x="1050" y="147"/>
      <point x="1031" y="146"/>
      <point x="1024" y="134" type="curve" smooth="yes"/>
      <point x="975" y="50"/>
      <point x="885" y="8"/>
      <point x="803" y="8" type="curve" smooth="yes"/>
      <point x="704" y="8"/>
      <point x="616" y="66"/>
      <point x="616" y="183" type="curve" smooth="yes"/>
      <point x="616" y="208"/>
      <point x="620" y="235"/>
      <point x="629" y="265" type="curve"/>
      <point x="724" y="265" type="line"/>
      <point x="750" y="267"/>
      <point x="760" y="289"/>
      <point x="760" y="312" type="curve" smooth="yes"/>
      <point x="760" y="331"/>
      <point x="752" y="348"/>
      <point x="740" y="349" type="curve" smooth="yes"/>
      <point x="739" y="349"/>
      <point x="647" y="351"/>
      <point x="645" y="351" type="curve"/>
      <point x="653" y="384"/>
      <point x="667" y="430"/>
      <point x="685" y="512" type="curve" smooth="yes"/>
      <point x="705" y="603"/>
      <point x="753" y="639"/>
      <point x="846" y="639" type="curve" smooth="yes"/>
      <point x="895" y="639"/>
      <point x="951" y="625"/>
      <point x="983" y="596" type="curve"/>
      <point x="949" y="582"/>
      <point x="936" y="558"/>
      <point x="936" y="534" type="curve" smooth="yes"/>
      <point x="936" y="525"/>
      <point x="938" y="516"/>
      <point x="941" y="507" type="curve" smooth="yes"/>
      <point x="949" y="489"/>
      <point x="972" y="478"/>
      <point x="989" y="478" type="curve" smooth="yes"/>
      <point x="993" y="478" type="line" smooth="yes"/>
      <point x="1016" y="478"/>
      <point x="1061" y="487"/>
      <point x="1061" y="560" type="curve" smooth="yes"/>
      <point x="1061" y="655"/>
      <point x="956" y="704"/>
      <point x="850" y="704" type="curve" smooth="yes"/>
      <point x="790" y="704"/>
      <point x="727" y="690"/>
    </contour>
    <contour>
      <point x="156" y="198" type="line"/>
      <point x="167" y="485"/>
      <point x="355" y="619"/>
      <point x="513" y="619" type="curve" smooth="yes"/>
      <point x="550" y="619"/>
      <point x="586" y="612"/>
      <point x="617" y="597" type="curve"/>
      <point x="573" y="489"/>
      <point x="543" y="205"/>
      <point x="476" y="109" type="curve" smooth="yes"/>
      <point x="435" y="50"/>
      <point x="370" y="17"/>
      <point x="300" y="17" type="curve" smooth="yes"/>
      <point x="208" y="17"/>
      <point x="156" y="76"/>
      <point x="156" y="183" type="curve" smooth="yes"/>
    </contour>
  </outline>
</glyph>
<glyph name="Thorn" format="1">
  <advance width="416"/>
  <unicode hex="00DE"/>
  <outline>
    <contour>
      <point x="174" y="-123" type="curve" smooth="yes"/>
      <point x="278" y="-123"/>
      <point x="308" y="-28"/>
      <point x="322" y="98" type="curve" smooth="yes"/>
      <point x="333" y="188"/>
      <point x="336" y="259"/>
      <point x="345" y="261" type="curve" smooth="yes"/>
      <point x="533" y="282"/>
      <point x="649" y="374"/>
      <point x="649" y="499" type="curve" smooth="yes"/>
      <point x="649" y="608"/>
      <point x="562" y="696"/>
      <point x="415" y="711" type="curve"/>
      <point x="424" y="775"/>
      <point x="431" y="824"/>
      <point x="431" y="831" type="curve" smooth="yes"/>
      <point x="432" y="845"/>
      <point x="427" y="850"/>
      <point x="413" y="850" type="curve" smooth="yes"/>
      <point x="374" y="850"/>
      <point x="354" y="804"/>
      <point x="335" y="712" type="curve"/>
      <point x="130" y="694"/>
      <point x="25" y="470"/>
      <point x="25" y="211" type="curve" smooth="yes"/>
      <point x="25" y="31"/>
      <point x="65" y="-123"/>
    </contour>
    <contour>
      <point x="186" y="-54" type="curve" smooth="yes"/>
      <point x="118" y="-54"/>
      <point x="105" y="102"/>
      <point x="105" y="211" type="curve" smooth="yes"/>
      <point x="105" y="378"/>
      <point x="162" y="599"/>
      <point x="321" y="629" type="curve"/>
      <point x="308" y="549"/>
      <point x="294" y="448"/>
      <point x="273" y="323" type="curve"/>
      <point x="253" y="324"/>
      <point x="210" y="354"/>
      <point x="188" y="354" type="curve" smooth="yes"/>
      <point x="178" y="354"/>
      <point x="178" y="343"/>
      <point x="178" y="327" type="curve" smooth="yes"/>
      <point x="178" y="281"/>
      <point x="223" y="273"/>
      <point x="264" y="256" type="curve"/>
      <point x="242" y="87"/>
      <point x="250" y="-54"/>
    </contour>
    <contour>
      <point x="349" y="321" type="curve"/>
      <point x="362" y="379"/>
      <point x="385" y="515"/>
      <point x="403" y="632" type="curve"/>
      <point x="506" y="624"/>
      <point x="563" y="573"/>
      <point x="563" y="491" type="curve" smooth="yes"/>
      <point x="563" y="400"/>
      <point x="479" y="334"/>
    </contour>
  </outline>
</glyph>
<glyph name="thorn" format="1">
  <advance width="339"/>
  <unicode hex="00FE"/>
  <outline>
    <contour>
      <point x="320" y="206" type="curve" smooth="yes"/>
      <point x="320" y="270"/>
      <point x="296" y="328"/>
      <point x="235" y="328" type="curve" smooth="yes"/>
      <point x="196" y="328"/>
      <point x="164" y="309"/>
      <point x="141" y="275" type="curve"/>
      <point x="183" y="490" type="line" smooth="yes"/>
      <point x="184" y="495"/>
      <point x="184" y="499"/>
      <point x="184" y="503" type="curve" smooth="yes"/>
      <point x="184" y="525"/>
      <point x="170" y="534"/>
      <point x="155" y="534" type="curve" smooth="yes"/>
      <point x="139" y="534"/>
      <point x="121" y="523"/>
      <point x="117" y="503" type="curve" smooth="yes"/>
      <point x="94" y="391"/>
      <point x="81" y="317"/>
      <point x="71" y="263" type="curve" smooth="yes"/>
      <point x="-13" y="-193" type="line" smooth="yes"/>
      <point x="-13" y="-195"/>
      <point x="-14" y="-198"/>
      <point x="-14" y="-200" type="curve" smooth="yes"/>
      <point x="-14" y="-220"/>
      <point x="3" y="-230"/>
      <point x="20" y="-230" type="curve" smooth="yes"/>
      <point x="36" y="-230"/>
      <point x="53" y="-221"/>
      <point x="57" y="-203" type="curve" smooth="yes"/>
      <point x="99" y="26" type="line"/>
      <point x="116" y="14"/>
      <point x="143" y="0"/>
      <point x="178" y="0" type="curve" smooth="yes"/>
      <point x="210" y="0"/>
      <point x="235" y="8"/>
      <point x="260" y="32" type="curve"/>
      <point x="314" y="41"/>
      <point x="373" y="73"/>
      <point x="417" y="113" type="curve" smooth="yes"/>
      <point x="427" y="122"/>
      <point x="432" y="135"/>
      <point x="432" y="146" type="curve" smooth="yes"/>
      <point x="432" y="160"/>
      <point x="425" y="173"/>
      <point x="413" y="173" type="curve" smooth="yes"/>
      <point x="408" y="173"/>
      <point x="403" y="171"/>
      <point x="397" y="166" type="curve" smooth="yes"/>
      <point x="367" y="143"/>
      <point x="315" y="104"/>
      <point x="288" y="99" type="curve"/>
      <point x="308" y="123"/>
      <point x="320" y="157"/>
    </contour>
    <contour>
      <point x="177" y="65" type="curve" smooth="yes"/>
      <point x="153" y="65"/>
      <point x="125" y="71"/>
      <point x="109" y="84" type="curve"/>
      <point x="119" y="158"/>
      <point x="137" y="260"/>
      <point x="213" y="260" type="curve" smooth="yes"/>
      <point x="245" y="260"/>
      <point x="257" y="230"/>
      <point x="257" y="194" type="curve" smooth="yes"/>
      <point x="257" y="138"/>
      <point x="224" y="65"/>
    </contour>
  </outline>
</glyph>
<glyph name="dotlessi" format="1">
  <advance width="205"/>
  <unicode hex="0131"/>
  <outline>
    <contour>
      <point x="130" y="0" type="move" name="ogonek"/>
    </contour>
    <contour>
      <point x="173" y="339" type="move" name="top"/>
    </contour>
    <contour>
      <point x="39" y="96" type="curve" smooth="yes"/>
      <point x="39" y="38"/>
      <point x="78" y="-3"/>
      <point x="138" y="-3" type="curve" smooth="yes"/>
      <point x="187" y="-3"/>
      <point x="243" y="26"/>
      <point x="292" y="84" type="curve" smooth="yes"/>
      <point x="300" y="94"/>
      <point x="303" y="98"/>
      <point x="303" y="107" type="curve" smooth="yes"/>
      <point x="303" y="127"/>
      <point x="287" y="138"/>
      <point x="271" y="138" type="curve" smooth="yes"/>
      <point x="264" y="138"/>
      <point x="258" y="134"/>
      <point x="253" y="128" type="curve" smooth="yes"/>
      <point x="212" y="81"/>
      <point x="177" y="60"/>
      <point x="152" y="60" type="curve" smooth="yes"/>
      <point x="130" y="60"/>
      <point x="117" y="77"/>
      <point x="117" y="107" type="curve" smooth="yes"/>
      <point x="117" y="156"/>
      <point x="152" y="258"/>
      <point x="177" y="305" type="curve" smooth="yes"/>
      <point x="179" y="308"/>
      <point x="179" y="311"/>
      <point x="179" y="314" type="curve" smooth="yes"/>
      <point x="179" y="331"/>
      <point x="158" y="339"/>
      <point x="140" y="339" type="curve" smooth="yes"/>
      <point x="122" y="339"/>
      <point x="109" y="332"/>
      <point x="97" y="309" type="curve" smooth="yes"/>
      <point x="69" y="257"/>
      <point x="39" y="156"/>
    </contour>
  </outline>
</glyph>
<glyph name="uni01CB" format="1">
  <advance width="827"/>
  <unicode hex="01CB"/>
  <outline>
    <contour>
      <point x="686" y="-208" type="curve" smooth="yes"/>
      <point x="778" y="-208"/>
      <point x="814" y="-80"/>
      <point x="814" y="16" type="curve" smooth="yes"/>
      <point x="814" y="59"/>
      <point x="805" y="98"/>
      <point x="795" y="131" type="curve"/>
      <point x="856" y="132"/>
      <point x="938" y="146"/>
      <point x="938" y="211" type="curve" smooth="yes"/>
      <point x="938" y="223"/>
      <point x="934" y="231"/>
      <point x="926" y="231" type="curve" smooth="yes"/>
      <point x="924" y="231"/>
      <point x="921" y="231"/>
      <point x="918" y="229" type="curve" smooth="yes"/>
      <point x="856" y="203"/>
      <point x="817" y="198"/>
      <point x="741" y="186" type="curve"/>
      <point x="765" y="241" type="line" smooth="yes"/>
      <point x="773" y="258"/>
      <point x="787" y="285"/>
      <point x="787" y="308" type="curve" smooth="yes"/>
      <point x="787" y="319"/>
      <point x="780" y="328"/>
      <point x="767" y="328" type="curve" smooth="yes"/>
      <point x="721" y="328"/>
      <point x="708" y="315"/>
      <point x="693" y="280" type="curve" smooth="yes"/>
      <point x="669" y="223"/>
      <point x="644" y="151"/>
      <point x="629" y="79" type="curve"/>
      <point x="603" y="53"/>
      <point x="569" y="38"/>
      <point x="540" y="38" type="curve" smooth="yes"/>
      <point x="511" y="38"/>
      <point x="489" y="52"/>
      <point x="489" y="83" type="curve" smooth="yes"/>
      <point x="489" y="89"/>
      <point x="489" y="95"/>
      <point x="491" y="102" type="curve" smooth="yes"/>
      <point x="529" y="268"/>
      <point x="621" y="441"/>
      <point x="621" y="543" type="curve" smooth="yes"/>
      <point x="621" y="604"/>
      <point x="579" y="643"/>
      <point x="507" y="643" type="curve" smooth="yes"/>
      <point x="351" y="643"/>
      <point x="272" y="474"/>
      <point x="219" y="332" type="curve"/>
      <point x="241" y="418"/>
      <point x="258" y="507"/>
      <point x="258" y="553" type="curve" smooth="yes"/>
      <point x="257" y="609"/>
      <point x="218" y="642"/>
      <point x="170" y="642" type="curve" smooth="yes"/>
      <point x="101" y="642"/>
      <point x="33" y="588"/>
      <point x="-4" y="505" type="curve" smooth="yes"/>
      <point x="-7" y="498"/>
      <point x="-8" y="492"/>
      <point x="-8" y="486" type="curve" smooth="yes"/>
      <point x="-8" y="455"/>
      <point x="31" y="436"/>
      <point x="46" y="436" type="curve" smooth="yes"/>
      <point x="49" y="436"/>
      <point x="50" y="437"/>
      <point x="51" y="438" type="curve" smooth="yes"/>
      <point x="84" y="527"/>
      <point x="120" y="571"/>
      <point x="155" y="571" type="curve" smooth="yes"/>
      <point x="156" y="571" type="line" smooth="yes"/>
      <point x="180" y="571"/>
      <point x="181" y="521"/>
      <point x="181" y="510" type="curve" smooth="yes"/>
      <point x="181" y="390"/>
      <point x="81" y="122"/>
      <point x="25" y="-17" type="curve"/>
      <point x="25" y="-17"/>
      <point x="49" y="-42"/>
      <point x="81" y="-42" type="curve" smooth="yes"/>
      <point x="121" y="-42"/>
      <point x="127" y="-9"/>
      <point x="140" y="22" type="curve" smooth="yes"/>
      <point x="247" y="287"/>
      <point x="357" y="555"/>
      <point x="492" y="555" type="curve" smooth="yes"/>
      <point x="520" y="555"/>
      <point x="531" y="535"/>
      <point x="531" y="511" type="curve" smooth="yes"/>
      <point x="531" y="439"/>
      <point x="439" y="257"/>
      <point x="411" y="85" type="curve" smooth="yes"/>
      <point x="410" y="79"/>
      <point x="410" y="72"/>
      <point x="410" y="66" type="curve" smooth="yes"/>
      <point x="410" y="9"/>
      <point x="452" y="-31"/>
      <point x="535" y="-31" type="curve" smooth="yes"/>
      <point x="560" y="-31"/>
      <point x="589" y="-22"/>
      <point x="616" y="-8" type="curve"/>
      <point x="614" y="-30"/>
      <point x="613" y="-54"/>
      <point x="613" y="-78" type="curve" smooth="yes"/>
      <point x="613" y="-146"/>
      <point x="626" y="-208"/>
    </contour>
    <contour>
      <point x="850" y="450" type="curve" smooth="yes"/>
      <point x="850" y="481"/>
      <point x="829" y="495"/>
      <point x="800" y="495" type="curve" smooth="yes"/>
      <point x="765" y="495"/>
      <point x="738" y="475"/>
      <point x="738" y="441" type="curve" smooth="yes"/>
      <point x="738" y="410"/>
      <point x="758" y="394"/>
      <point x="792" y="394" type="curve" smooth="yes"/>
      <point x="827" y="394"/>
      <point x="850" y="415"/>
    </contour>
    <contour>
      <point x="749" y="12" type="curve" smooth="yes"/>
      <point x="749" y="-43"/>
      <point x="737" y="-131"/>
      <point x="704" y="-131" type="curve" smooth="yes"/>
      <point x="690" y="-131"/>
      <point x="687" y="-107"/>
      <point x="687" y="-85" type="curve" smooth="yes"/>
      <point x="687" y="-78"/>
      <point x="688" y="-71"/>
      <point x="688" y="-65" type="curve" smooth="yes"/>
      <point x="695" y="14"/>
      <point x="711" y="84"/>
      <point x="729" y="153" type="curve"/>
      <point x="738" y="108"/>
      <point x="749" y="63"/>
    </contour>
  </outline>
</glyph>
<glyph name="dagger" format="1">
  <advance width="394"/>
  <unicode hex="2020"/>
  <outline>
    <contour>
      <point x="177" y="-92" type="curve" smooth="yes"/>
      <point x="225" y="-92"/>
      <point x="227" y="-55"/>
      <point x="272" y="125" type="curve"/>
      <point x="306" y="277" type="line"/>
      <point x="395" y="277" type="line" smooth="yes"/>
      <point x="417" y="277"/>
      <point x="430" y="283"/>
      <point x="430" y="306" type="curve" smooth="yes"/>
      <point x="430" y="323"/>
      <point x="418" y="333"/>
      <point x="401" y="333" type="curve" smooth="yes"/>
      <point x="317" y="333" type="line"/>
      <point x="338" y="420"/>
      <point x="349" y="452"/>
      <point x="349" y="489" type="curve" smooth="yes"/>
      <point x="349" y="505"/>
      <point x="344" y="517"/>
      <point x="328" y="517" type="curve" smooth="yes"/>
      <point x="277" y="517"/>
      <point x="280" y="481"/>
      <point x="241" y="333" type="curve"/>
      <point x="160" y="333" type="line" smooth="yes"/>
      <point x="140" y="333"/>
      <point x="124" y="323"/>
      <point x="124" y="303" type="curve" smooth="yes"/>
      <point x="124" y="283"/>
      <point x="136" y="277"/>
      <point x="157" y="277" type="curve" smooth="yes"/>
      <point x="228" y="277" type="line"/>
      <point x="162" y="0"/>
      <point x="153" y="-24"/>
      <point x="153" y="-53" type="curve" smooth="yes"/>
      <point x="153" y="-72"/>
      <point x="158" y="-92"/>
    </contour>
  </outline>
</glyph>
<glyph name="trademark" format="1">
  <advance width="932"/>
  <unicode hex="2122"/>
  <outline>
    <contour>
      <point x="708" y="344" type="curve" smooth="yes"/>
      <point x="697" y="344"/>
      <point x="693" y="351"/>
      <point x="693" y="363" type="curve" smooth="yes"/>
      <point x="693" y="399"/>
      <point x="732" y="480"/>
      <point x="740" y="532" type="curve" smooth="yes"/>
      <point x="741" y="536"/>
      <point x="741" y="540"/>
      <point x="741" y="543" type="curve" smooth="yes"/>
      <point x="741" y="580"/>
      <point x="712" y="604"/>
      <point x="672" y="604" type="curve" smooth="yes"/>
      <point x="628" y="604"/>
      <point x="601" y="568"/>
      <point x="581" y="524" type="curve"/>
      <point x="581" y="528"/>
      <point x="582" y="532"/>
      <point x="582" y="536" type="curve" smooth="yes"/>
      <point x="582" y="571"/>
      <point x="564" y="605"/>
      <point x="525" y="605" type="curve" smooth="yes"/>
      <point x="522" y="605"/>
      <point x="519" y="604"/>
      <point x="516" y="604" type="curve" smooth="yes"/>
      <point x="475" y="599"/>
      <point x="429" y="546"/>
      <point x="398" y="479" type="curve"/>
      <point x="407" y="508"/>
      <point x="422" y="556"/>
      <point x="422" y="568" type="curve" smooth="yes"/>
      <point x="422" y="602"/>
      <point x="342" y="604"/>
      <point x="291" y="604" type="curve" smooth="yes"/>
      <point x="197" y="604"/>
      <point x="92" y="597"/>
      <point x="92" y="504" type="curve" smooth="yes"/>
      <point x="92" y="485"/>
      <point x="102" y="472"/>
      <point x="122" y="472" type="curve" smooth="yes"/>
      <point x="145" y="472"/>
      <point x="162" y="483"/>
      <point x="162" y="504" type="curve" smooth="yes"/>
      <point x="162" y="544"/>
      <point x="197" y="552"/>
      <point x="250" y="552" type="curve"/>
      <point x="184" y="352" type="line" smooth="yes"/>
      <point x="181" y="344"/>
      <point x="180" y="336"/>
      <point x="180" y="330" type="curve" smooth="yes"/>
      <point x="180" y="314"/>
      <point x="190" y="304"/>
      <point x="207" y="304" type="curve" smooth="yes"/>
      <point x="227" y="304"/>
      <point x="232" y="318"/>
      <point x="239" y="342" type="curve" smooth="yes"/>
      <point x="255" y="407"/>
      <point x="281" y="485"/>
      <point x="299" y="552" type="curve"/>
      <point x="319" y="552"/>
      <point x="354" y="551"/>
      <point x="374" y="547" type="curve"/>
      <point x="374" y="547"/>
      <point x="330" y="414"/>
      <point x="313" y="339" type="curve" smooth="yes"/>
      <point x="312" y="337"/>
      <point x="312" y="335"/>
      <point x="312" y="333" type="curve" smooth="yes"/>
      <point x="312" y="314"/>
      <point x="331" y="301"/>
      <point x="351" y="301" type="curve" smooth="yes"/>
      <point x="369" y="301"/>
      <point x="376" y="318"/>
      <point x="382" y="333" type="curve" smooth="yes"/>
      <point x="394" y="361"/>
      <point x="406" y="394"/>
      <point x="417" y="424" type="curve" smooth="yes"/>
      <point x="442" y="489"/>
      <point x="474" y="533"/>
      <point x="499" y="540" type="curve" smooth="yes"/>
      <point x="501" y="541"/>
      <point x="503" y="541"/>
      <point x="505" y="541" type="curve" smooth="yes"/>
      <point x="517" y="541"/>
      <point x="523" y="531"/>
      <point x="523" y="512" type="curve" smooth="yes"/>
      <point x="523" y="505"/>
      <point x="522" y="496"/>
      <point x="520" y="486" type="curve" smooth="yes"/>
      <point x="512" y="444"/>
      <point x="496" y="392"/>
      <point x="482" y="338" type="curve" smooth="yes"/>
      <point x="482" y="336"/>
      <point x="481" y="333"/>
      <point x="481" y="331" type="curve" smooth="yes"/>
      <point x="481" y="315"/>
      <point x="495" y="301"/>
      <point x="521" y="301" type="curve" smooth="yes"/>
      <point x="536" y="301"/>
      <point x="544" y="311"/>
      <point x="549" y="326" type="curve" smooth="yes"/>
      <point x="574" y="408"/>
      <point x="601" y="540"/>
      <point x="659" y="540" type="curve" smooth="yes"/>
      <point x="672" y="540"/>
      <point x="680" y="530"/>
      <point x="680" y="518" type="curve" smooth="yes"/>
      <point x="680" y="515"/>
      <point x="680" y="513"/>
      <point x="679" y="510" type="curve" smooth="yes"/>
      <point x="665" y="457"/>
      <point x="646" y="405"/>
      <point x="639" y="357" type="curve" smooth="yes"/>
      <point x="639" y="354"/>
      <point x="638" y="351"/>
      <point x="638" y="348" type="curve" smooth="yes"/>
      <point x="638" y="318"/>
      <point x="663" y="296"/>
      <point x="699" y="296" type="curve" smooth="yes"/>
      <point x="738" y="296"/>
      <point x="772" y="325"/>
      <point x="795" y="362" type="curve" smooth="yes"/>
      <point x="799" y="369"/>
      <point x="801" y="375"/>
      <point x="801" y="381" type="curve" smooth="yes"/>
      <point x="801" y="395"/>
      <point x="790" y="403"/>
      <point x="778" y="403" type="curve" smooth="yes"/>
      <point x="771" y="403"/>
      <point x="764" y="400"/>
      <point x="760" y="394" type="curve" smooth="yes"/>
      <point x="746" y="372"/>
      <point x="727" y="344"/>
    </contour>
  </outline>
</glyph>
<glyph name="product" format="1">
  <advance width="776"/>
  <unicode hex="220F"/>
  <outline>
    <contour>
      <point x="594" y="-88" type="curve" smooth="yes"/>
      <point x="621" y="-88"/>
      <point x="643" y="-61"/>
      <point x="643" y="-18" type="curve" smooth="yes"/>
      <point x="643" y="-2"/>
      <point x="642" y="20"/>
      <point x="642" y="50" type="curve" smooth="yes"/>
      <point x="642" y="138"/>
      <point x="651" y="293"/>
      <point x="724" y="544" type="curve"/>
      <point x="760" y="544"/>
      <point x="835" y="545"/>
      <point x="858" y="547" type="curve" smooth="yes"/>
      <point x="872" y="549"/>
      <point x="885" y="573"/>
      <point x="885" y="594" type="curve" smooth="yes"/>
      <point x="885" y="611"/>
      <point x="877" y="627"/>
      <point x="854" y="627" type="curve" smooth="yes"/>
      <point x="644" y="627"/>
      <point x="500" y="633"/>
      <point x="380" y="633" type="curve" smooth="yes"/>
      <point x="292" y="633"/>
      <point x="217" y="630"/>
      <point x="138" y="619" type="curve" smooth="yes"/>
      <point x="119" y="617"/>
      <point x="110" y="598"/>
      <point x="110" y="580" type="curve" smooth="yes"/>
      <point x="110" y="560"/>
      <point x="120" y="541"/>
      <point x="138" y="541" type="curve" smooth="yes"/>
      <point x="143" y="541" type="line"/>
      <point x="186" y="547"/>
      <point x="208" y="552"/>
      <point x="285" y="552" type="curve" smooth="yes"/>
      <point x="308" y="552" type="line"/>
      <point x="183" y="254"/>
      <point x="156" y="53"/>
      <point x="156" y="-17" type="curve" smooth="yes"/>
      <point x="156" y="-60"/>
      <point x="180" y="-88"/>
      <point x="208" y="-88" type="curve" smooth="yes"/>
      <point x="230" y="-88"/>
      <point x="250" y="-71"/>
      <point x="256" y="-36" type="curve" smooth="yes"/>
      <point x="263" y="5"/>
      <point x="261" y="166"/>
      <point x="377" y="552" type="curve"/>
      <point x="452" y="550"/>
      <point x="591" y="547"/>
      <point x="654" y="546" type="curve"/>
      <point x="560" y="255"/>
      <point x="541" y="74"/>
      <point x="541" y="-3" type="curve" smooth="yes"/>
      <point x="541" y="-22"/>
      <point x="543" y="-35"/>
      <point x="544" y="-41" type="curve" smooth="yes"/>
      <point x="552" y="-72"/>
      <point x="573" y="-88"/>
    </contour>
  </outline>
</glyph>
<glyph name="infinity" format="1">
  <advance width="678"/>
  <unicode hex="221E"/>
  <outline>
    <contour>
      <point x="258" y="383" type="curve" smooth="yes"/>
      <point x="167" y="383"/>
      <point x="129" y="314"/>
      <point x="129" y="226" type="curve" smooth="yes"/>
      <point x="129" y="149"/>
      <point x="175" y="108"/>
      <point x="244" y="108" type="curve" smooth="yes"/>
      <point x="317" y="108"/>
      <point x="359" y="155"/>
      <point x="391" y="203" type="curve"/>
      <point x="427" y="155"/>
      <point x="460" y="108"/>
      <point x="527" y="108" type="curve" smooth="yes"/>
      <point x="617" y="108"/>
      <point x="651" y="179"/>
      <point x="651" y="256" type="curve" smooth="yes"/>
      <point x="651" y="329"/>
      <point x="608" y="384"/>
      <point x="542" y="384" type="curve" smooth="yes"/>
      <point x="467" y="384"/>
      <point x="420" y="326"/>
      <point x="395" y="286" type="curve"/>
      <point x="363" y="334"/>
      <point x="328" y="383"/>
    </contour>
    <contour>
      <point x="197" y="237" type="curve" smooth="yes"/>
      <point x="197" y="281"/>
      <point x="223" y="310"/>
      <point x="257" y="310" type="curve" smooth="yes"/>
      <point x="301" y="310"/>
      <point x="336" y="272"/>
      <point x="352" y="243" type="curve"/>
      <point x="335" y="223"/>
      <point x="303" y="178"/>
      <point x="258" y="178" type="curve" smooth="yes"/>
      <point x="222" y="178"/>
      <point x="197" y="195"/>
    </contour>
    <contour>
      <point x="585" y="245" type="curve" smooth="yes"/>
      <point x="585" y="219"/>
      <point x="566" y="188"/>
      <point x="527" y="188" type="curve" smooth="yes"/>
      <point x="492" y="188"/>
      <point x="448" y="219"/>
      <point x="434" y="242" type="curve"/>
      <point x="452" y="264"/>
      <point x="495" y="311"/>
      <point x="532" y="311" type="curve" smooth="yes"/>
      <point x="567" y="311"/>
      <point x="585" y="286"/>
    </contour>
  </outline>
</glyph>
<glyph name="lessequal" format="1">
  <advance width="568"/>
  <unicode hex="2264"/>
  <outline>
    <component base="less" xOffset="116" yOffset="44"/>
    <contour>
      <point x="187" y="-11" type="curve" smooth="yes"/>
      <point x="379" y="-11" type="line" smooth="yes"/>
      <point x="430" y="-11"/>
      <point x="468" y="0"/>
      <point x="468" y="44" type="curve" smooth="yes"/>
      <point x="468" y="61"/>
      <point x="457" y="65"/>
      <point x="440" y="65" type="curve" smooth="yes"/>
      <point x="194" y="65" type="line" smooth="yes"/>
      <point x="179" y="65" type="line" smooth="yes"/>
      <point x="149" y="65"/>
      <point x="129" y="59"/>
      <point x="129" y="32" type="curve" smooth="yes"/>
      <point x="129" y="0"/>
      <point x="149" y="-11"/>
    </contour>
  </outline>
</glyph>
<glyph name="greaterequal" format="1">
  <advance width="566"/>
  <unicode hex="2265"/>
  <outline>
    <component base="greater" xOffset="103" yOffset="58"/>
    <contour>
      <point x="202" y="-11" type="curve" smooth="yes"/>
      <point x="406" y="-11" type="line" smooth="yes"/>
      <point x="443" y="-11"/>
      <point x="481" y="0"/>
      <point x="481" y="44" type="curve" smooth="yes"/>
      <point x="481" y="61"/>
      <point x="470" y="65"/>
      <point x="453" y="65" type="curve" smooth="yes"/>
      <point x="227" y="65" type="line" smooth="yes"/>
      <point x="188" y="65"/>
      <point x="144" y="63"/>
      <point x="144" y="32" type="curve" smooth="yes"/>
      <point x="144" y="0"/>
      <point x="165" y="-11"/>
    </contour>
  </outline>
</glyph>
<glyph name="caron.alt" format="1">
  <advance width="600"/>
  <outline>
    <contour>
      <point x="89" y="339" type="move" name="_caron.alt"/>
    </contour>
    <contour>
      <point x="92" y="438" type="curve" smooth="yes"/>
      <point x="90" y="435"/>
      <point x="89" y="433"/>
      <point x="89" y="430" type="curve" smooth="yes"/>
      <point x="89" y="422"/>
      <point x="96" y="417"/>
      <point x="103" y="417" type="curve" smooth="yes"/>
      <point x="106" y="417" type="line"/>
      <point x="175" y="437"/>
      <point x="256" y="540"/>
      <point x="260" y="569" type="curve"/>
      <point x="260" y="575" type="line" smooth="yes"/>
      <point x="260" y="599"/>
      <point x="239" y="610"/>
      <point x="219" y="610" type="curve" smooth="yes"/>
      <point x="206" y="610"/>
      <point x="191" y="606"/>
      <point x="184" y="591" type="curve" smooth="yes"/>
      <point x="145" y="498"/>
      <point x="94" y="442"/>
    </contour>
  </outline>
</glyph>
